<svg width="600" height="300" viewBox="0 0 600 300" fill="none" xmlns="http://www.w3.org/2000/svg">
<rect width="600" height="300" fill="#FCEED5"/>
<path d="M188.908 168V133.091H203.328C205.942 133.091 208.197 133.602 210.095 134.625C212.004 135.636 213.476 137.051 214.51 138.869C215.544 140.676 216.061 142.778 216.061 145.176C216.061 147.585 215.533 149.693 214.476 151.5C213.43 153.295 211.936 154.687 209.993 155.676C208.05 156.665 205.743 157.159 203.072 157.159H194.175V150.511H201.504C202.777 150.511 203.839 150.29 204.692 149.847C205.555 149.403 206.209 148.784 206.652 147.989C207.095 147.182 207.317 146.244 207.317 145.176C207.317 144.097 207.095 143.165 206.652 142.381C206.209 141.585 205.555 140.972 204.692 140.54C203.828 140.108 202.766 139.892 201.504 139.892H197.345V168H188.908ZM231.943 168.494C229.205 168.494 226.841 167.955 224.852 166.875C222.875 165.784 221.352 164.233 220.284 162.222C219.227 160.199 218.699 157.795 218.699 155.011C218.699 152.307 219.233 149.943 220.301 147.92C221.369 145.886 222.875 144.307 224.818 143.182C226.761 142.045 229.051 141.477 231.688 141.477C233.551 141.477 235.256 141.767 236.801 142.347C238.347 142.926 239.682 143.784 240.807 144.92C241.932 146.057 242.807 147.46 243.432 149.131C244.057 150.79 244.369 152.693 244.369 154.841V156.92H221.614V152.08H236.614C236.602 151.193 236.392 150.403 235.983 149.71C235.574 149.017 235.011 148.477 234.295 148.091C233.591 147.693 232.778 147.494 231.858 147.494C230.926 147.494 230.091 147.705 229.352 148.125C228.614 148.534 228.028 149.097 227.597 149.812C227.165 150.517 226.938 151.318 226.915 152.216V157.142C226.915 158.21 227.125 159.148 227.545 159.955C227.966 160.75 228.562 161.369 229.335 161.812C230.108 162.256 231.028 162.477 232.097 162.477C232.835 162.477 233.506 162.375 234.108 162.17C234.71 161.966 235.227 161.665 235.659 161.267C236.091 160.869 236.415 160.381 236.631 159.801L244.284 160.023C243.966 161.739 243.267 163.233 242.188 164.506C241.119 165.767 239.716 166.75 237.977 167.455C236.239 168.148 234.227 168.494 231.943 168.494ZM263.405 141.818V147.955H246.888V141.818H263.405ZM250.348 135.545H258.683V159.767C258.683 160.278 258.763 160.693 258.922 161.011C259.092 161.318 259.337 161.54 259.655 161.676C259.973 161.801 260.354 161.864 260.797 161.864C261.115 161.864 261.45 161.835 261.803 161.778C262.166 161.71 262.439 161.653 262.621 161.608L263.882 167.625C263.484 167.739 262.922 167.881 262.195 168.051C261.479 168.222 260.621 168.33 259.621 168.375C257.666 168.466 255.99 168.239 254.592 167.693C253.206 167.136 252.143 166.273 251.405 165.102C250.678 163.932 250.325 162.46 250.348 160.688V135.545ZM276.555 153.068V168H268.22V133.091H276.283V146.625H276.572C277.163 145.011 278.129 143.75 279.47 142.841C280.822 141.932 282.476 141.477 284.43 141.477C286.271 141.477 287.874 141.886 289.237 142.705C290.601 143.511 291.658 144.653 292.408 146.131C293.169 147.608 293.544 149.335 293.533 151.312V168H285.197V152.949C285.209 151.494 284.845 150.358 284.107 149.54C283.368 148.722 282.328 148.312 280.987 148.312C280.112 148.312 279.339 148.506 278.669 148.892C278.01 149.267 277.493 149.807 277.118 150.511C276.754 151.216 276.567 152.068 276.555 153.068ZM310.957 168.494C308.207 168.494 305.844 167.932 303.866 166.807C301.901 165.67 300.384 164.091 299.315 162.068C298.259 160.034 297.73 157.676 297.73 154.994C297.73 152.301 298.259 149.943 299.315 147.92C300.384 145.886 301.901 144.307 303.866 143.182C305.844 142.045 308.207 141.477 310.957 141.477C313.707 141.477 316.065 142.045 318.031 143.182C320.009 144.307 321.526 145.886 322.582 147.92C323.651 149.943 324.185 152.301 324.185 154.994C324.185 157.676 323.651 160.034 322.582 162.068C321.526 164.091 320.009 165.67 318.031 166.807C316.065 167.932 313.707 168.494 310.957 168.494ZM311.009 162.205C312.009 162.205 312.855 161.898 313.548 161.284C314.241 160.67 314.77 159.818 315.134 158.727C315.509 157.636 315.696 156.375 315.696 154.943C315.696 153.489 315.509 152.216 315.134 151.125C314.77 150.034 314.241 149.182 313.548 148.568C312.855 147.955 312.009 147.648 311.009 147.648C309.974 147.648 309.099 147.955 308.384 148.568C307.679 149.182 307.139 150.034 306.764 151.125C306.401 152.216 306.219 153.489 306.219 154.943C306.219 156.375 306.401 157.636 306.764 158.727C307.139 159.818 307.679 160.67 308.384 161.284C309.099 161.898 309.974 162.205 311.009 162.205ZM343.233 141.818V147.955H326.716V141.818H343.233ZM330.176 135.545H338.511V159.767C338.511 160.278 338.591 160.693 338.75 161.011C338.92 161.318 339.165 161.54 339.483 161.676C339.801 161.801 340.182 161.864 340.625 161.864C340.943 161.864 341.278 161.835 341.631 161.778C341.994 161.71 342.267 161.653 342.449 161.608L343.71 167.625C343.313 167.739 342.75 167.881 342.023 168.051C341.307 168.222 340.449 168.33 339.449 168.375C337.494 168.466 335.818 168.239 334.42 167.693C333.034 167.136 331.972 166.273 331.233 165.102C330.506 163.932 330.153 162.46 330.176 160.688V135.545ZM359.443 168.494C356.705 168.494 354.341 167.955 352.352 166.875C350.375 165.784 348.852 164.233 347.784 162.222C346.727 160.199 346.199 157.795 346.199 155.011C346.199 152.307 346.733 149.943 347.801 147.92C348.869 145.886 350.375 144.307 352.318 143.182C354.261 142.045 356.551 141.477 359.188 141.477C361.051 141.477 362.756 141.767 364.301 142.347C365.847 142.926 367.182 143.784 368.307 144.92C369.432 146.057 370.307 147.46 370.932 149.131C371.557 150.79 371.869 152.693 371.869 154.841V156.92H349.114V152.08H364.114C364.102 151.193 363.892 150.403 363.483 149.71C363.074 149.017 362.511 148.477 361.795 148.091C361.091 147.693 360.278 147.494 359.358 147.494C358.426 147.494 357.591 147.705 356.852 148.125C356.114 148.534 355.528 149.097 355.097 149.812C354.665 150.517 354.438 151.318 354.415 152.216V157.142C354.415 158.21 354.625 159.148 355.045 159.955C355.466 160.75 356.062 161.369 356.835 161.812C357.608 162.256 358.528 162.477 359.597 162.477C360.335 162.477 361.006 162.375 361.608 162.17C362.21 161.966 362.727 161.665 363.159 161.267C363.591 160.869 363.915 160.381 364.131 159.801L371.784 160.023C371.466 161.739 370.767 163.233 369.688 164.506C368.619 165.767 367.216 166.75 365.477 167.455C363.739 168.148 361.727 168.494 359.443 168.494ZM384.462 133.091V168H376.126V133.091H384.462ZM412.625 149.812L404.972 150.017C404.892 149.472 404.676 148.989 404.324 148.568C403.972 148.136 403.511 147.801 402.943 147.562C402.386 147.312 401.739 147.188 401 147.188C400.034 147.188 399.21 147.381 398.528 147.767C397.858 148.153 397.528 148.676 397.54 149.335C397.528 149.847 397.733 150.29 398.153 150.665C398.585 151.04 399.352 151.341 400.455 151.568L405.5 152.523C408.114 153.023 410.057 153.852 411.33 155.011C412.614 156.17 413.261 157.705 413.273 159.614C413.261 161.409 412.727 162.972 411.67 164.301C410.625 165.631 409.193 166.665 407.375 167.403C405.557 168.131 403.477 168.494 401.136 168.494C397.398 168.494 394.449 167.727 392.29 166.193C390.142 164.648 388.915 162.58 388.608 159.989L396.841 159.784C397.023 160.739 397.494 161.466 398.256 161.966C399.017 162.466 399.989 162.716 401.17 162.716C402.239 162.716 403.108 162.517 403.778 162.119C404.449 161.722 404.79 161.193 404.801 160.534C404.79 159.943 404.528 159.472 404.017 159.119C403.506 158.756 402.705 158.472 401.614 158.267L397.045 157.398C394.42 156.92 392.466 156.04 391.182 154.756C389.898 153.46 389.261 151.812 389.273 149.812C389.261 148.062 389.727 146.568 390.67 145.33C391.614 144.08 392.955 143.125 394.693 142.466C396.432 141.807 398.483 141.477 400.847 141.477C404.392 141.477 407.188 142.222 409.233 143.71C411.278 145.187 412.409 147.222 412.625 149.812Z" fill="#1E1E1E"/>
</svg>
