<svg width="600" height="300" viewBox="0 0 600 300" fill="none" xmlns="http://www.w3.org/2000/svg">
<rect width="600" height="300" fill="#181818"/>
<path d="M220.875 190.261C220.693 188.648 219.943 187.398 218.625 186.511C217.307 185.614 215.648 185.165 213.648 185.165C212.216 185.165 210.977 185.392 209.932 185.847C208.886 186.29 208.074 186.903 207.494 187.688C206.926 188.46 206.642 189.341 206.642 190.33C206.642 191.159 206.835 191.875 207.222 192.477C207.619 193.08 208.136 193.585 208.773 193.994C209.42 194.392 210.114 194.727 210.852 195C211.591 195.261 212.301 195.477 212.983 195.648L216.392 196.534C217.506 196.807 218.648 197.176 219.818 197.642C220.989 198.108 222.074 198.722 223.074 199.483C224.074 200.244 224.881 201.188 225.494 202.312C226.119 203.438 226.432 204.784 226.432 206.352C226.432 208.33 225.92 210.085 224.898 211.619C223.886 213.153 222.415 214.364 220.483 215.25C218.563 216.136 216.239 216.58 213.511 216.58C210.898 216.58 208.636 216.165 206.727 215.335C204.818 214.506 203.324 213.33 202.244 211.807C201.165 210.273 200.568 208.455 200.455 206.352H205.739C205.841 207.614 206.25 208.665 206.966 209.506C207.693 210.335 208.619 210.955 209.744 211.364C210.881 211.761 212.125 211.96 213.477 211.96C214.966 211.96 216.29 211.727 217.449 211.261C218.619 210.784 219.54 210.125 220.21 209.284C220.881 208.432 221.216 207.437 221.216 206.301C221.216 205.267 220.92 204.42 220.33 203.761C219.75 203.102 218.96 202.557 217.96 202.125C216.972 201.693 215.852 201.312 214.602 200.983L210.477 199.858C207.682 199.097 205.466 197.977 203.83 196.5C202.205 195.023 201.392 193.068 201.392 190.636C201.392 188.625 201.938 186.869 203.028 185.369C204.119 183.869 205.597 182.705 207.46 181.875C209.324 181.034 211.426 180.614 213.767 180.614C216.131 180.614 218.216 181.028 220.023 181.858C221.841 182.688 223.273 183.83 224.318 185.284C225.364 186.727 225.909 188.386 225.955 190.261H220.875ZM232.317 216V189.818H237.413V216H232.317ZM234.891 185.778C234.004 185.778 233.243 185.483 232.607 184.892C231.982 184.29 231.669 183.574 231.669 182.744C231.669 181.903 231.982 181.187 232.607 180.597C233.243 179.994 234.004 179.693 234.891 179.693C235.777 179.693 236.533 179.994 237.158 180.597C237.794 181.187 238.112 181.903 238.112 182.744C238.112 183.574 237.794 184.29 237.158 184.892C236.533 185.483 235.777 185.778 234.891 185.778ZM256.491 189.818V193.909H242.19V189.818H256.491ZM246.026 183.545H251.122V208.312C251.122 209.301 251.27 210.045 251.565 210.545C251.861 211.034 252.241 211.369 252.707 211.551C253.185 211.722 253.702 211.807 254.259 211.807C254.668 211.807 255.026 211.778 255.332 211.722C255.639 211.665 255.878 211.619 256.048 211.585L256.969 215.795C256.673 215.909 256.253 216.023 255.707 216.136C255.162 216.261 254.48 216.33 253.662 216.341C252.321 216.364 251.071 216.125 249.912 215.625C248.753 215.125 247.815 214.352 247.099 213.307C246.384 212.261 246.026 210.949 246.026 209.369V183.545ZM273.132 216.528C270.553 216.528 268.331 215.977 266.467 214.875C264.615 213.761 263.183 212.199 262.172 210.188C261.172 208.165 260.672 205.795 260.672 203.08C260.672 200.398 261.172 198.034 262.172 195.989C263.183 193.943 264.592 192.347 266.399 191.199C268.217 190.051 270.342 189.477 272.774 189.477C274.251 189.477 275.683 189.722 277.07 190.21C278.456 190.699 279.7 191.466 280.803 192.511C281.905 193.557 282.774 194.915 283.411 196.585C284.047 198.244 284.365 200.261 284.365 202.636V204.443H263.553V200.625H279.371C279.371 199.284 279.098 198.097 278.553 197.062C278.007 196.017 277.24 195.193 276.251 194.591C275.274 193.989 274.126 193.688 272.808 193.688C271.376 193.688 270.126 194.04 269.058 194.744C268.001 195.437 267.183 196.347 266.604 197.472C266.036 198.585 265.751 199.795 265.751 201.102V204.085C265.751 205.835 266.058 207.324 266.672 208.551C267.297 209.778 268.166 210.716 269.28 211.364C270.393 212 271.695 212.318 273.183 212.318C274.149 212.318 275.03 212.182 275.825 211.909C276.621 211.625 277.308 211.205 277.888 210.648C278.467 210.091 278.911 209.403 279.217 208.585L284.041 209.455C283.655 210.875 282.962 212.119 281.962 213.188C280.973 214.244 279.729 215.068 278.229 215.659C276.74 216.239 275.041 216.528 273.132 216.528ZM309.469 190.261C309.287 188.648 308.537 187.398 307.219 186.511C305.901 185.614 304.241 185.165 302.241 185.165C300.81 185.165 299.571 185.392 298.526 185.847C297.48 186.29 296.668 186.903 296.088 187.688C295.52 188.46 295.236 189.341 295.236 190.33C295.236 191.159 295.429 191.875 295.815 192.477C296.213 193.08 296.73 193.585 297.366 193.994C298.014 194.392 298.707 194.727 299.446 195C300.185 195.261 300.895 195.477 301.577 195.648L304.986 196.534C306.099 196.807 307.241 197.176 308.412 197.642C309.582 198.108 310.668 198.722 311.668 199.483C312.668 200.244 313.474 201.188 314.088 202.312C314.713 203.438 315.026 204.784 315.026 206.352C315.026 208.33 314.514 210.085 313.491 211.619C312.48 213.153 311.009 214.364 309.077 215.25C307.156 216.136 304.832 216.58 302.105 216.58C299.491 216.58 297.23 216.165 295.321 215.335C293.412 214.506 291.918 213.33 290.838 211.807C289.759 210.273 289.162 208.455 289.048 206.352H294.332C294.435 207.614 294.844 208.665 295.56 209.506C296.287 210.335 297.213 210.955 298.338 211.364C299.474 211.761 300.719 211.96 302.071 211.96C303.56 211.96 304.884 211.727 306.043 211.261C307.213 210.784 308.134 210.125 308.804 209.284C309.474 208.432 309.81 207.437 309.81 206.301C309.81 205.267 309.514 204.42 308.923 203.761C308.344 203.102 307.554 202.557 306.554 202.125C305.565 201.693 304.446 201.312 303.196 200.983L299.071 199.858C296.276 199.097 294.06 197.977 292.423 196.5C290.798 195.023 289.986 193.068 289.986 190.636C289.986 188.625 290.531 186.869 291.622 185.369C292.713 183.869 294.19 182.705 296.054 181.875C297.918 181.034 300.02 180.614 302.361 180.614C304.724 180.614 306.81 181.028 308.616 181.858C310.435 182.688 311.866 183.83 312.912 185.284C313.957 186.727 314.503 188.386 314.548 190.261H309.469ZM324.132 225.818C323.371 225.818 322.678 225.756 322.053 225.631C321.428 225.517 320.962 225.392 320.655 225.256L321.882 221.08C322.814 221.33 323.643 221.438 324.371 221.403C325.098 221.369 325.74 221.097 326.297 220.585C326.865 220.074 327.365 219.239 327.797 218.08L328.428 216.341L318.848 189.818H324.303L330.933 210.136H331.206L337.837 189.818H343.308L332.518 219.494C332.018 220.858 331.382 222.011 330.609 222.955C329.837 223.909 328.916 224.625 327.848 225.102C326.78 225.58 325.541 225.818 324.132 225.818ZM353.195 200.455V216H348.098V189.818H352.99V194.08H353.314C353.916 192.693 354.859 191.58 356.143 190.739C357.439 189.898 359.07 189.477 361.036 189.477C362.82 189.477 364.382 189.852 365.723 190.602C367.064 191.341 368.104 192.443 368.842 193.909C369.581 195.375 369.95 197.187 369.95 199.347V216H364.854V199.96C364.854 198.062 364.359 196.58 363.371 195.511C362.382 194.432 361.024 193.892 359.297 193.892C358.115 193.892 357.064 194.148 356.143 194.659C355.234 195.17 354.513 195.92 353.979 196.909C353.456 197.886 353.195 199.068 353.195 200.455ZM387.814 216.528C385.28 216.528 383.098 215.955 381.268 214.807C379.45 213.648 378.053 212.051 377.075 210.017C376.098 207.983 375.609 205.653 375.609 203.028C375.609 200.369 376.109 198.023 377.109 195.989C378.109 193.943 379.518 192.347 381.337 191.199C383.155 190.051 385.297 189.477 387.763 189.477C389.751 189.477 391.524 189.847 393.081 190.585C394.638 191.312 395.893 192.335 396.848 193.653C397.814 194.972 398.388 196.511 398.57 198.273H393.609C393.337 197.045 392.712 195.989 391.734 195.102C390.768 194.216 389.473 193.773 387.848 193.773C386.428 193.773 385.183 194.148 384.115 194.898C383.058 195.636 382.234 196.693 381.643 198.068C381.053 199.432 380.757 201.045 380.757 202.909C380.757 204.818 381.047 206.466 381.626 207.852C382.206 209.239 383.024 210.312 384.081 211.074C385.149 211.835 386.405 212.216 387.848 212.216C388.814 212.216 389.689 212.04 390.473 211.688C391.268 211.324 391.933 210.807 392.467 210.136C393.013 209.466 393.393 208.659 393.609 207.716H398.57C398.388 209.409 397.837 210.92 396.916 212.25C395.996 213.58 394.763 214.625 393.217 215.386C391.683 216.148 389.882 216.528 387.814 216.528Z" fill="white"/>
<path fill-rule="evenodd" clip-rule="evenodd" d="M327.122 118.588C315.591 118.588 306.244 127.858 306.244 139.294C306.244 150.73 315.591 160 327.122 160C338.653 160 348 150.73 348 139.294C348 127.858 338.653 118.588 327.122 118.588ZM272.878 118.59C261.348 118.59 252 127.858 252 139.294C252 150.73 261.348 160 272.878 160C284.409 160 293.757 150.73 293.757 139.294C293.757 127.858 284.409 118.59 272.878 118.59ZM320.878 92.7052C320.878 104.141 311.531 113.413 300 113.413C288.469 113.413 279.122 104.141 279.122 92.7052C279.122 81.2712 288.469 72 300 72C311.531 72 320.878 81.2712 320.878 92.7052Z" fill="#EA683F"/>
</svg>