<svg width="600" height="300" viewBox="0 0 600 300" fill="none" xmlns="http://www.w3.org/2000/svg">
<rect width="600" height="300" fill="#F3F1FA"/>
<path d="M101.42 184.636C111.525 184.636 122.036 180.1 122.036 168.206C122.036 157.421 114.178 153.391 103.971 150.67C96.4175 148.653 92.3366 146.539 92.3366 141.699C92.3366 137.265 95.6013 134.142 100.604 134.142C107.441 134.142 114.687 140.695 117.75 149.463H118.771V135.353C113.567 133.137 107.748 131.623 102.544 131.623C91.2165 131.623 82.8466 137.872 82.8466 147.648C82.8466 158.028 90.8067 161.961 100.604 164.379C108.462 166.294 112.239 168.51 112.239 173.551C112.239 178.593 108.564 182.117 103.053 182.117C96.4174 182.117 88.051 176.273 84.4789 165.889H83.4581V180.906C89.0721 183.628 95.7037 184.636 101.42 184.636Z" fill="#142B3F"/>
<path d="M142.093 184.636C148.728 184.636 154.035 181.21 156.074 176.573L155.053 176.07C154.236 177.18 152.092 178.589 148.827 178.589C144.234 178.589 140.256 175.568 140.256 169.218V136.563H153.83L155.053 132.935H140.256V122.15H139.747C134.949 127.593 128.621 132.53 121.887 135.049V135.552C124.438 136.56 126.48 138.776 126.48 142.607V169.215C126.48 178.89 133.521 184.636 142.096 184.636H142.093Z" fill="#142B3F"/>
<path d="M199.668 179.294C199.361 179.699 198.442 180.1 197.117 180.1C195.485 180.1 193.951 179.092 193.951 176.07V150.774C193.951 139.588 186.5 131.626 173.438 131.626C163.436 131.626 155.373 136.968 153.027 145.837H154.048C156.599 141.099 161.192 138.178 167.213 138.178C175.378 138.178 180.176 143.419 180.176 150.778V157.026C166.602 157.026 152.109 162.065 152.109 173.757C152.109 180.407 157.006 184.642 165.376 184.642C172.827 184.642 177.317 181.216 179.766 176.883H180.073L180.176 177.287C180.889 181.823 184.461 184.646 190.178 184.646C194.668 184.646 198.548 182.73 200.18 179.806L199.671 179.304L199.668 179.294ZM172.827 178.087C169.562 178.087 166.397 176.07 166.397 170.529C166.397 163.576 171.908 159.542 180.176 159.343V170.934C180.176 174.765 177.113 178.09 172.827 178.09V178.087Z" fill="#142B3F"/>
<path d="M223.383 184.636C240.426 184.636 251.245 171.332 251.245 156.619C251.245 141.905 243.182 131.623 231.039 131.623C223.997 131.623 218.588 135.15 215.423 140.695H214.914V108.243H214.405L197.464 113.888V114.39C199.81 116.609 201.138 119.732 201.138 125.475V178.59C206.342 181.915 213.384 184.636 223.386 184.636H223.383ZM223.892 182.32C218.585 182.32 215.522 178.691 214.91 175.163V147.146C215.522 142.209 219.401 138.681 224.708 138.681C232.056 138.681 236.445 146.34 236.445 159.344C236.445 173.251 232.056 182.323 223.892 182.323V182.32Z" fill="#142B3F"/>
<path d="M273.027 183.324V182.822C271.19 180.201 270.168 176.07 270.168 171.433V131.623H269.66L252.718 137.268V137.771C255.064 140.087 256.393 143.113 256.393 148.856V171.43C256.393 176.067 255.372 180.198 253.535 182.819V183.321H273.027V183.324Z" fill="#142B3F"/>
<path d="M295.949 183.324V182.822C294.112 180.201 293.091 176.07 293.091 171.433V108.239H292.582L275.641 113.884V114.387C277.987 116.606 279.315 119.729 279.315 125.472V171.43C279.315 176.067 278.294 180.198 276.457 182.818V183.321H295.949V183.324Z" fill="#142B3F"/>
<path d="M319.088 183.324V182.822C317.253 180.201 316.232 176.07 316.232 171.433V131.623H315.723L298.781 137.268V137.771C301.127 140.087 302.456 143.113 302.456 148.856V171.43C302.456 176.067 301.435 180.198 299.597 182.819V183.321H319.088V183.324Z" fill="#142B3F"/>
<path d="M340.377 184.636C347.01 184.636 352.317 181.21 354.357 176.573L353.336 176.07C352.519 177.18 350.373 178.589 347.111 178.589C342.517 178.589 338.539 175.568 338.539 169.218V136.563H352.113L353.339 132.935H338.539V122.15H338.029C333.232 127.593 326.903 132.53 320.169 135.049V135.552C322.721 136.56 324.763 138.776 324.763 142.607V169.215C324.763 178.89 331.802 184.636 340.377 184.636Z" fill="#142B3F"/>
<path d="M349.065 204.088C365.7 204.088 370.191 196.328 374.583 186.248L392.544 144.725C394.791 139.585 397.748 136.058 400.811 133.437V132.935H388.767V133.437C390.81 135.454 392.032 139.383 389.377 145.531L379.683 168.308L369.172 144.822C366.828 139.582 367.541 135.751 369.376 133.434V132.932H346.416V133.434C348.967 135.953 351.619 139.683 353.866 144.421L372.747 184.434C369.175 190.784 363.459 192.801 354.173 192.801H349.073V204.088H349.065Z" fill="#142B3F"/>
<path fill-rule="evenodd" clip-rule="evenodd" d="M308.548 126.633C313.482 126.633 317.478 122.685 317.478 117.813C317.478 112.941 313.478 108.993 308.548 108.993C303.618 108.993 299.62 112.941 299.62 117.813C299.62 122.685 303.618 126.633 308.548 126.633ZM262.622 126.633C267.555 126.633 271.55 122.685 271.55 117.813C271.55 112.941 267.552 108.993 262.622 108.993C257.692 108.993 253.693 112.941 253.693 117.813C253.693 122.685 257.692 126.633 262.622 126.633Z" fill="#8478B3"/>
<path d="M419.148 134.684V141.217H410.86V134.684H407.884V150.51H410.86V143.729H419.148V150.51H422.126V134.684H419.148ZM433.74 148.043V143.68H441.478V141.262H433.74V137.147H442.463V134.684H430.765V150.51H442.783V148.046H433.74V148.043ZM462.44 150.507H465.553L458.32 134.681H455.391L448.181 150.507H451.247L452.826 146.845H460.838L462.44 150.507ZM453.834 144.539L456.833 137.621L459.858 144.539H453.837H453.834ZM471.938 150.507H483.292V148.02H474.911V134.684H471.935V150.51L471.938 150.507ZM491.74 150.507H494.718V137.17H500.028V134.684H486.43V137.17H491.74V150.507ZM517.868 134.681V141.213H509.58V134.681H506.604V150.507H509.58V143.726H517.868V150.507H520.846V134.681H517.868Z" fill="#8478B3"/>
<path d="M415.301 177.503C417.935 177.503 420.179 176.576 421.665 174.857L419.742 173.049C418.576 174.315 417.131 174.925 415.459 174.925C412.139 174.925 409.738 172.618 409.738 169.365C409.738 166.111 412.139 163.804 415.459 163.804C417.131 163.804 418.574 164.414 419.742 165.658L421.665 163.873C420.179 162.153 417.935 161.226 415.324 161.226C410.405 161.226 406.739 164.64 406.739 169.365C406.739 174.09 410.402 177.503 415.301 177.503ZM440.524 177.278H443.636L436.403 161.452H433.472L426.262 177.278H429.328L430.907 173.617H438.921L440.524 177.278ZM431.915 171.31L434.917 164.392L437.939 171.31H431.915ZM463.71 177.278L460.026 172.076C462.2 171.241 463.436 169.476 463.436 167.08C463.436 163.576 460.825 161.452 456.616 161.452H450.024V177.278H453V172.667H456.619C456.823 172.667 457.032 172.667 457.237 172.644L460.512 177.278H463.717H463.71ZM460.434 167.08C460.434 169.071 459.082 170.246 456.476 170.246H452.997V163.938H456.476C459.087 163.938 460.434 165.09 460.434 167.08ZM474.086 174.811V170.448H481.821V168.03H474.086V163.915H482.806V161.452H471.108V177.278H483.126V174.814H474.086V174.811Z" fill="#8478B3"/>
</svg>
