<svg width="176" height="55" viewBox="0 0 176 55" fill="none" xmlns="http://www.w3.org/2000/svg">
<g clip-path="url(#clip0_43_591)">
<path d="M80.3196 46.9014C80.8255 46.3519 81.0786 45.4665 81.0786 44.2435V19.9831L89.6467 11.365V45.464C89.6467 48.4386 88.8769 50.7689 87.3377 52.4608C85.7986 54.1524 83.5703 54.9968 80.6536 54.9968H72.9952V47.7241H77.9812C79.0334 47.7241 79.8141 47.4477 80.3196 46.8983V46.9014Z" fill="black"/>
<path d="M125.001 42.7764H117.407V37.9342C114.631 41.8832 111.727 43.3909 107.443 43.3909C98.3638 43.3909 95.0485 37.0193 95.0485 28.412V11.3626H103.617V27.3726C103.617 30.2256 104.112 32.3747 105.105 33.82C106.098 35.2655 107.626 35.988 109.693 35.988C111.759 35.988 113.5 35.1842 114.674 33.5737C115.85 31.966 116.436 29.7139 116.436 26.8206V11.3599H125.001V42.7711V42.7764Z" fill="black"/>
<path d="M139.52 0H130.952V42.7766H139.52V0Z" fill="black"/>
<path d="M159.42 33.9145L166.834 11.365H176.007L162.154 47.2368C161.425 49.1507 160.736 50.6499 160.088 51.7271C159.439 52.8073 158.618 53.6222 157.625 54.1715C156.633 54.721 155.346 54.9968 153.767 54.9968H145.444V47.7241H150.182C151.275 47.7241 152.066 47.5402 152.55 47.1746C153.037 46.8091 153.503 46.0949 153.947 45.0365L154.738 42.9575L142.71 11.365H151.824L159.418 33.9145H159.42Z" fill="black"/>
<path d="M89.646 2.74927H81.0782V11.3674H89.646V2.74927Z" fill="black"/>
<path d="M37.6784 54.9993C27.7974 54.9993 18.4759 52.3957 11.4257 47.6698C4.05793 42.7272 0 36.0524 0 28.8743C0 21.6962 4.05793 15.0187 11.4257 10.079C18.4759 5.35311 27.7974 2.74927 37.6784 2.74927C39.0911 2.74927 40.2375 3.90233 40.2375 5.32334C40.2375 6.74435 39.0911 7.89739 37.6784 7.89739C28.7984 7.89739 20.4833 10.1927 14.2673 14.3637C8.36878 18.3182 5.12083 23.4717 5.12083 28.8717C5.12083 34.2715 8.36878 39.425 14.2673 43.3795C14.3749 43.4525 14.4826 43.523 14.5929 43.596C13.6565 41.7393 13.1694 39.7553 13.1694 37.7036C13.1694 32.8829 15.8576 28.425 20.739 25.1526C25.3001 22.094 31.3171 20.4104 37.6784 20.4104C44.0398 20.4104 50.057 22.094 54.6179 25.1526C59.4993 28.425 62.1876 32.8829 62.1876 37.7036C62.1876 42.5242 59.4993 46.9821 54.6179 50.2545C50.057 53.313 44.0398 54.9993 37.6784 54.9993ZM37.6703 49.8485C37.6703 49.8485 37.6811 49.8485 37.6866 49.8485C43.3346 49.8458 48.286 46.9225 48.286 43.5935C48.286 40.2641 43.3293 37.3382 37.6758 37.3382C32.0221 37.3382 27.0654 40.2615 27.0654 43.5935C27.0654 46.9251 32.0194 49.8458 37.665 49.8485H37.6703ZM37.6784 25.5614C27.1676 25.5614 18.2902 31.1208 18.2902 37.7036C18.2902 40.3155 19.6869 42.765 22.028 44.7708C21.9742 44.3834 21.9472 43.9888 21.9472 43.5904C21.9472 37.1947 28.8575 32.1846 37.6758 32.1846C46.4939 32.1846 53.4042 37.1947 53.4042 43.5904C53.4042 43.9888 53.3774 44.3834 53.3236 44.7708C55.6645 42.765 57.0612 40.3155 57.0612 37.7036C57.0612 31.1208 48.1811 25.5614 37.6731 25.5614H37.6784Z" fill="#7E3EFF"/>
</g>
<defs>
<clipPath id="clip0_43_591">
<rect width="176" height="55" fill="white"/>
</clipPath>
</defs>
</svg>
