<svg width="109" height="48" viewBox="0 0 109 48" fill="none" xmlns="http://www.w3.org/2000/svg">
<path d="M2.03998 42.0672C2.03998 41.5461 2.53874 41.2558 3.3055 41.2558C3.89359 41.2558 4.73478 41.4642 5.57597 41.9778L6.1194 40.824C5.39731 40.3476 4.41468 40.0275 3.40227 40.0275C1.71988 40.0275 0.57348 40.8612 0.57348 42.1937C0.57348 44.9555 4.76456 43.9878 4.76456 45.7223C4.76456 46.3178 4.22113 46.6677 3.31294 46.6677C2.47919 46.6677 1.48167 46.2657 0.685143 45.5362L0.119385 46.6677C0.915912 47.3972 2.06976 47.896 3.29061 47.896C4.99533 47.896 6.21617 47.0399 6.21617 45.6553C6.23106 42.8637 2.03254 43.7719 2.03254 42.0746L2.03998 42.0672Z" fill="#25324B"/>
<path d="M18.0376 40.0794H16.7274V47.8437H21.4024V46.6601H18.0376V40.0794Z" fill="#25324B"/>
<path d="M27.9383 44.6278C27.9383 45.9455 27.1493 46.7271 25.8837 46.7271C24.6182 46.7271 23.7994 45.938 23.7994 44.6278V40.0794H22.4892V44.6278C22.4892 46.6601 23.777 47.8958 25.8689 47.8958C27.9607 47.8958 29.2411 46.6527 29.2411 44.6278V40.0794H27.9309V44.6278H27.9383Z" fill="#25324B"/>
<path d="M30.2014 41.2556H32.6505V47.8437H33.9607V41.2556H36.4247V40.0794H30.2014V41.2556Z" fill="#25324B"/>
<path d="M38.8515 40.0794H37.5413V47.8437H38.8515V40.0794Z" fill="#25324B"/>
<path d="M44.3602 40.0496C42.045 40.0496 40.2436 41.732 40.2436 43.9653C40.2436 46.1985 42.0376 47.9033 44.3602 47.9033C46.6828 47.9033 48.4768 46.1836 48.4768 43.9653C48.4768 41.7469 46.6828 40.0496 44.3602 40.0496ZM44.3751 46.7271C42.8565 46.7271 41.5835 45.5062 41.5835 43.9653C41.5835 42.4243 42.849 41.2258 44.3751 41.2258C45.9011 41.2258 47.1369 42.4243 47.1369 43.9653C47.1369 45.5062 45.8937 46.7271 44.3751 46.7271Z" fill="#25324B"/>
<path d="M55.318 45.6551L51.1567 40.0794H49.8688V47.8437H51.179V42.2755L55.318 47.8437H56.6058V40.0794H55.318V45.6551Z" fill="#25324B"/>
<path d="M59.8441 42.0672C59.8441 41.5461 60.3428 41.2558 61.1096 41.2558C61.6977 41.2558 62.5389 41.4642 63.3801 41.9778L63.9235 40.824C63.2014 40.3476 62.2188 40.0275 61.2064 40.0275C59.5165 40.0275 58.3776 40.8612 58.3776 42.1937C58.3776 44.9555 62.5687 43.9878 62.5687 45.7223C62.5687 46.3178 62.0252 46.6677 61.117 46.6677C60.2833 46.6677 59.2858 46.2657 58.4893 45.5362L57.9235 46.6677C58.72 47.3972 59.8739 47.896 61.0947 47.896C62.7994 47.896 64.0203 47.0399 64.0203 45.6553C64.0352 42.8637 59.8366 43.7719 59.8366 42.0746L59.8441 42.0672Z" fill="#25324B"/>
<path d="M71.926 41.2111C72.7374 41.2111 73.5637 41.5461 74.1667 42.097L74.9111 41.1292C74.1443 40.4667 73.0352 40.0424 71.926 40.0424C69.5736 40.0424 67.7647 41.7396 67.7647 43.958C67.7647 46.1764 69.5513 47.896 71.8441 47.896C72.9086 47.896 74.0699 47.4866 74.859 46.8836V44.025H73.72V46.1838C73.1692 46.5188 72.5141 46.7198 71.9334 46.7198C70.3478 46.7198 69.0972 45.5138 69.0972 43.958C69.0972 42.4022 70.3404 41.2111 71.926 41.2111Z" fill="#25324B"/>
<path d="M82.9955 42.7296C82.9955 41.0472 81.8565 40.0794 79.8689 40.0794H76.7201V47.8437H78.0302V45.5063H79.8689C79.9881 45.5063 80.1146 45.5063 80.2263 45.4914L81.6481 47.8437H83.1369L81.395 45.2457C82.4297 44.8437 83.0029 43.9728 83.0029 42.7296H82.9955ZM79.8689 44.3301H78.0302V41.2556H79.8689C81.0675 41.2556 81.7523 41.7469 81.7523 42.7668C81.7523 43.7866 81.0675 44.3301 79.8689 44.3301Z" fill="#25324B"/>
<path d="M88.2064 40.0496C85.8912 40.0496 84.0897 41.732 84.0897 43.9653C84.0897 46.1985 85.8838 47.9033 88.2064 47.9033C90.5289 47.9033 92.323 46.1836 92.323 43.9653C92.323 41.7469 90.5289 40.0496 88.2064 40.0496ZM88.2138 46.7271C86.6952 46.7271 85.4222 45.5062 85.4222 43.9653C85.4222 42.4243 86.6877 41.2258 88.2138 41.2258C89.7399 41.2258 90.9756 42.4243 90.9756 43.9653C90.9756 45.5062 89.7324 46.7271 88.2138 46.7271Z" fill="#25324B"/>
<path d="M99.0004 44.6278C99.0004 45.9455 98.2113 46.7271 96.9458 46.7271C95.6803 46.7271 94.8614 45.938 94.8614 44.6278V40.0794H93.5513V44.6278C93.5513 46.6601 94.8391 47.8958 96.9309 47.8958C99.0227 47.8958 100.303 46.6527 100.303 44.6278V40.0794H98.993V44.6278H99.0004Z" fill="#25324B"/>
<path d="M105.276 40.0794H102.179V47.8437H103.489V45.5063H105.276C107.226 45.5063 108.35 44.4864 108.35 42.737C108.35 40.9876 107.234 40.0869 105.276 40.0869V40.0794ZM105.224 44.3301H103.497V41.2556H105.224C106.422 41.2556 107.1 41.7469 107.1 42.7668C107.1 43.7866 106.422 44.3301 105.224 44.3301Z" fill="#25324B"/>
<path fill-rule="evenodd" clip-rule="evenodd" d="M15.3127 43.608C15.2978 43.4963 15.1713 43.4144 15.0596 43.4144C14.6948 43.4144 14.3747 43.1986 14.2408 42.871C14.0993 42.536 14.1886 42.1415 14.4566 41.8958C14.546 41.8214 14.5534 41.6874 14.4864 41.5981C14.3003 41.3598 14.0919 41.1514 13.8611 40.9653C13.7718 40.8909 13.6378 40.9057 13.5559 40.9876C13.34 41.2333 12.9678 41.3301 12.6551 41.2333L12.3871 41.0993C12.1564 40.9281 12.0224 40.6526 12.0373 40.3549C12.0447 40.2358 11.9628 40.139 11.8437 40.1241C11.5534 40.0869 11.2556 40.0869 10.9579 40.1241C10.8388 40.1316 10.7569 40.2283 10.7643 40.3474C10.7718 40.7122 10.5559 41.0546 10.2209 41.1886C9.89335 41.3226 9.47647 41.2258 9.23826 40.9653C9.16382 40.8834 9.03727 40.8685 8.94794 40.943C8.70972 41.1291 8.49384 41.3375 8.30774 41.5757C8.23329 41.6651 8.24074 41.799 8.33007 41.8735C8.6055 42.1266 8.69483 42.5211 8.54595 42.8561C8.41195 43.1837 8.07697 43.3921 7.68987 43.3921C7.56332 43.3921 7.47399 43.474 7.4591 43.5857C7.42932 43.8834 7.42932 44.1886 7.4591 44.4864C7.47399 44.5981 7.60798 44.6799 7.71965 44.6799C8.06208 44.6725 8.38962 44.8809 8.53106 45.2234C8.6725 45.5584 8.58317 45.9529 8.30774 46.1986C8.22585 46.273 8.21841 46.407 8.2854 46.4963C8.47151 46.7271 8.67995 46.943 8.91072 47.1291C9.00005 47.2035 9.13404 47.1886 9.21593 47.1067C9.43181 46.8611 9.80402 46.7643 10.1167 46.8611L10.3847 46.9951C10.6154 47.1663 10.7494 47.4417 10.7345 47.7395C10.7271 47.8586 10.809 47.9554 10.9281 47.9703C11.077 47.9852 11.2259 48.0001 11.3822 48.0001C11.5236 48.0001 11.6725 47.9926 11.8139 47.9703C11.9256 47.9628 12.0149 47.8586 12.0075 47.747C12.0001 47.3822 12.2159 47.0398 12.5509 46.9058C12.8785 46.7718 13.2953 46.8685 13.5261 47.1291C13.608 47.211 13.7345 47.2259 13.8239 47.1514C14.0621 46.9653 14.278 46.7569 14.4641 46.5187C14.5385 46.4293 14.5311 46.2953 14.4417 46.2209C14.1663 45.9678 14.077 45.5732 14.2184 45.2383C14.3524 44.9182 14.68 44.7023 15.0298 44.7023H15.0745C15.1936 44.7097 15.2978 44.6204 15.3127 44.5087C15.3425 44.211 15.3425 43.9058 15.3127 43.608ZM11.3896 45.3723C11.2705 45.3723 11.1514 45.3574 11.0398 45.3276L10.7643 45.2159C10.3549 44.9926 10.072 44.5534 10.072 44.0546C10.072 43.3251 10.6675 42.737 11.3896 42.737C11.5087 42.737 11.6204 42.7519 11.7246 42.7817L12.0001 42.8859C12.4244 43.1092 12.7072 43.5484 12.7072 44.0546C12.7072 44.7842 12.1192 45.3723 11.3896 45.3723Z" fill="#25324B"/>
<path fill-rule="evenodd" clip-rule="evenodd" d="M88.4295 36.8934C99.3873 36.8934 107.807 28.8389 107.807 18.3946H107.799C107.799 7.95052 99.3799 0 88.422 0C77.4642 0 69.0523 7.95052 69.0523 18.3946C69.0523 28.8389 77.4716 36.8934 88.4295 36.8934ZM88.5262 30.6553C81.8265 30.6553 76.1615 25.2506 76.1615 18.3946C76.1615 11.5385 81.8786 6.23814 88.5262 6.23814C95.174 6.23814 100.683 11.5385 100.683 18.3946C100.683 25.2506 95.226 30.6553 88.5262 30.6553Z" fill="#25324B"/>
<path fill-rule="evenodd" clip-rule="evenodd" d="M28.6825 9.29796C28.6825 13.2952 26.2928 16.3623 22.34 17.3524C27.1192 18.2383 30.082 21.7146 30.082 26.5461C30.082 32.7842 24.938 36.5732 16.6228 36.5732H0V0.208277H16.1613C23.9033 0.208277 28.6825 3.69229 28.6825 9.29796ZM21.5658 10.5484C21.5658 7.79422 19.3847 6.23814 15.7965 6.23814H6.96029V15.0672H15.7965C19.3847 15.0672 21.5658 13.4068 21.5658 10.5484ZM22.8611 25.6675C22.8611 22.7048 20.211 20.8884 15.7965 20.8884H6.96029V30.551H15.7965C20.211 30.551 22.8611 28.7866 22.8611 25.6675Z" fill="#25324B"/>
<path fill-rule="evenodd" clip-rule="evenodd" d="M66.1341 12.7296C66.1341 21.0447 60.886 25.8758 51.7445 25.8758H43.7941V36.5808H36.8338V0.208277H51.7445C60.886 0.208277 66.1341 4.72713 66.1341 12.7296ZM56.1441 17.1216H49.6676C44.881 17.1216 44.6875 20.8884 44.6875 20.8884V9.81157C44.6875 8.62769 45.6478 7.6601 46.8388 7.6601H55.4146C57.0076 7.6601 58.2955 8.94792 58.2955 10.5411V14.9702C58.2955 16.154 57.3351 17.1216 56.1441 17.1216Z" fill="#25324B"/>
</svg>
