<svg width="792" height="792" viewBox="0 0 792 792" fill="none" xmlns="http://www.w3.org/2000/svg">
<g clip-path="url(#clip0_43_4460)">
<mask id="mask0_43_4460" style="mask-type:luminance" maskUnits="userSpaceOnUse" x="0" y="0" width="792" height="792">
<path d="M791.782 658.754L133.028 791.073L0.708684 132.319L659.463 0L791.782 658.754Z" fill="white"/>
</mask>
<g mask="url(#mask0_43_4460)">
<path d="M192.492 664.044C194.472 663.569 196.876 662.62 199.661 661.005C210.793 654.553 222.769 640.325 224.45 623.081L224.7 620.503L224.894 620.502C227.716 590.697 236.098 498.301 232.889 483.226C231.354 483.67 229.677 483.645 228.229 483.033C226.325 482.323 224.926 480.87 223.523 479.566C225.053 480.745 226.6 481.976 228.411 482.513C230.203 483.104 232.135 482.801 233.705 481.866C235.297 480.952 236.588 479.543 237.706 478.048C238.731 476.675 239.612 475.185 240.421 473.654L237.452 435.688L243.279 473.489C244.278 473.864 245.316 474.13 246.352 474.249C247.891 474.429 249.445 474.256 250.743 473.628C252.047 473.013 253.059 471.939 253.7 470.605C254.283 469.417 254.602 468.06 254.765 466.664L254.703 466.682L246.625 433.33L257.272 465.288C258.045 465.451 258.905 465.53 259.685 465.488C260.752 465.438 261.77 465.174 262.652 464.693C264.284 463.809 265.412 462.142 266.077 460.202L254.724 430.159L268.459 458.623C268.645 458.585 268.835 458.54 269.013 458.488C269.515 458.339 270.014 458.14 270.488 457.902C271.438 457.424 272.293 456.779 272.965 456C274.271 454.516 274.848 452.529 274.823 450.435L262.45 423.719L277.131 448.749C277.693 448.709 278.429 448.451 279.07 448.047C279.959 447.502 280.768 446.734 281.408 445.863C282.608 444.247 283.175 442.25 282.808 440.39L268.244 416.915L284.713 438.155C285.221 438.01 285.674 437.677 286.072 437.117C286.632 436.334 286.989 435.263 287.171 434.162C287.472 432.256 287.339 430.21 286.774 428.34L273.004 410.099L288.132 425.639C289.984 424.943 291.682 423.626 292.443 421.916C292.888 420.925 292.961 419.805 292.659 418.709C292.459 417.957 292.099 417.231 291.657 416.538L278.395 403.137L293.747 414.616C294.441 414.614 295.137 414.546 295.821 414.409C297.188 414.133 298.535 413.586 299.569 412.666C300.6 411.759 301.186 410.361 300.893 408.957C300.825 408.542 300.69 408.139 300.528 407.749L284.262 396.125L297.288 403.032C297.146 402.309 297.136 401.57 297.307 400.854C297.884 398.46 300.028 396.922 303.047 396.745L303.562 396.715L304.055 396.865C329.011 404.458 370.115 444.62 371.852 446.326L372.152 446.621L372.357 446.99C383.081 466.429 410.614 520.878 413.241 544.584C416.378 538.677 417.757 528.287 414.608 519.187C408.745 506.727 401.881 490.265 396.031 478.978C392.772 472.678 389.461 466.405 386.041 460.191C384.342 457.079 382.586 453.996 380.788 450.941C379.85 449.44 378.99 447.883 377.986 446.423L376.505 444.215L374.816 442.162L376.577 444.161L378.134 446.322C379.192 447.753 380.103 449.277 381.095 450.751C382.997 453.751 384.86 456.776 386.666 459.832C390.298 465.936 393.824 472.101 397.297 478.294C403.782 489.833 410.104 501.456 416.352 513.131C417.619 512.389 418.518 511.31 418.994 509.874C419.798 507.443 419.435 504.245 418.055 500.742C412.278 490.156 405.773 476.863 400.073 467.412C396.771 461.934 393.434 456.479 390.003 451.08C388.297 448.377 386.551 445.696 384.764 443.046C383.847 441.738 382.985 440.387 382.01 439.122L380.574 437.202L378.995 435.398L380.643 437.144L382.152 439.012C383.18 440.245 384.09 441.562 385.058 442.839C386.946 445.425 388.794 448.039 390.603 450.684C394.239 455.955 397.782 461.289 401.292 466.645C406.67 474.851 411.951 483.116 417.197 491.408C420.035 487.396 419.28 483.237 417.844 480.116C412.69 472.275 407.081 463.006 402.447 456.156C399.496 451.779 396.562 447.392 393.724 442.938C392.3 440.715 390.897 438.478 389.553 436.204C388.879 435.069 388.203 433.935 387.588 432.764C386.927 431.622 386.383 430.41 385.845 429.209C386.467 430.377 387.083 431.532 387.822 432.627C388.51 433.748 389.26 434.83 390.008 435.913C391.498 438.081 393.046 440.212 394.614 442.326C397.739 446.563 400.959 450.733 404.195 454.887C408.385 460.253 414.974 467.39 420.912 473.967L420.93 473.954C420.96 473.997 420.986 474.039 421.015 474.081C422.533 475.764 424.01 477.411 425.388 478.978C427.935 481.061 431.365 482.696 435.364 481.734C429.24 474.294 423.153 466.825 417.158 459.281C413.112 454.191 409.103 449.071 405.189 443.877C403.223 441.288 401.301 438.664 399.421 436.011C398.511 434.662 397.529 433.365 396.687 431.97L395.388 429.907L394.274 427.735L395.465 429.86L396.836 431.871C397.726 433.226 398.756 434.488 399.711 435.799C401.685 438.376 403.698 440.921 405.756 443.433C409.852 448.47 414.043 453.433 418.269 458.364C423.713 464.721 431.699 472.828 439.007 480.381L439.02 480.376L439.137 480.515C441.309 482.759 443.412 484.949 445.376 487.031C447.826 489.029 450.034 490.057 451.822 489.973C453.304 489.901 454.638 489.005 455.896 487.297C447.38 477.851 438.924 468.361 430.591 458.757C425.77 453.211 420.999 447.621 416.318 441.955C413.97 439.128 411.671 436.258 409.41 433.361C408.318 431.881 407.156 430.458 406.124 428.935L404.562 426.661C404.095 425.871 403.674 425.05 403.23 424.25C403.702 425.039 404.146 425.842 404.638 426.613L406.269 428.829C407.346 430.313 408.556 431.699 409.691 433.138C412.043 435.956 414.429 438.742 416.865 441.486C421.722 446.991 426.669 452.415 431.664 457.796C438.583 465.264 448.962 475.242 458.078 484.178L458.098 484.149L460.057 486.121C460.288 486.348 460.515 486.572 460.744 486.799C468.157 494.107 479.155 496.812 486.267 495.692C466.014 485.737 425.573 444.996 406.641 423.172L406.382 422.871L406.211 422.511C405.178 420.314 380.914 368.408 382.497 342.34L382.528 341.826L382.735 341.355C383.952 338.586 386.141 337.112 388.587 337.406C389.309 337.494 389.988 337.755 390.61 338.132L388.7 323.531L393.972 342.874C394.27 343.146 394.585 343.392 394.933 343.592C396.147 344.354 397.659 344.294 398.87 343.642C400.092 342.995 401.075 341.923 401.811 340.737C402.181 340.135 402.492 339.495 402.738 338.834L397.316 320.474L405.395 337.743C405.868 338.337 406.394 338.866 406.994 339.263C407.942 339.903 409.045 340.177 410.149 340.062C411.974 339.87 413.745 338.777 415.051 337.349L405.721 317.848L417.752 336.542C419.149 338.363 421.129 339.699 423.263 340.102C424.348 340.303 425.473 340.255 426.396 339.879C427.081 339.61 427.611 339.176 427.957 338.628L413.77 315.761L430.697 337.592C432.313 338.586 434.381 338.75 436.316 338.187C437.353 337.892 438.357 337.401 439.177 336.757C439.78 336.298 440.279 335.698 440.51 335.183L422.165 312.703L442.895 333.609C444.85 334.361 446.913 334.513 448.758 333.807C449.723 333.448 450.625 332.873 451.405 332.147C451.794 331.786 452.153 331.387 452.468 330.969C452.579 330.822 452.687 330.659 452.788 330.498L430.894 307.705L455.098 328.814C457.149 328.868 459.104 328.389 460.501 327.17C461.259 326.512 461.861 325.647 462.279 324.665C462.591 323.948 462.817 323.115 462.933 322.334L436.688 301.219L465.134 320.411L465.096 320.463C466.462 320.799 467.845 320.971 469.161 320.838C470.636 320.703 471.995 320.128 473.026 319.12C474.066 318.122 474.77 316.727 475.138 315.222C475.403 314.149 475.519 313.022 475.499 311.893L442.096 293.439L476.908 309.414C478.536 309.19 480.151 308.898 481.712 308.441C483.505 307.915 485.273 307.195 486.685 306.022C488.109 304.876 489.066 303.169 489.136 301.285C489.264 299.399 488.65 297.521 488.076 295.677C488.809 297.447 489.684 299.262 489.687 301.295C489.756 302.865 489.196 304.444 488.245 305.728C501.69 314.21 599.753 340.289 627.494 347.574C642.567 349.648 657.56 343.879 666.459 336.536C668.942 334.488 670.671 332.564 671.804 330.875C625.191 345.706 489.408 295.328 429.863 273.235C426.215 271.882 422.915 270.657 420.014 269.589C400.625 262.453 389.663 261.132 383.359 265.17C383.236 265.25 383.111 265.334 382.99 265.418C373.496 272.017 371.79 293.643 368.986 329.178L368.505 335.265L366.037 335.443C364.087 335.584 346.934 336.695 339.588 332.716C338.022 332.119 330.785 329.161 327.552 324.336C326.636 322.971 325.659 321.192 324.625 319.307C322.132 314.765 319.03 309.114 315.321 306.451C310.718 303.148 298.666 297.622 294.466 295.734L291.764 297.612C292.078 306.243 293.034 319.601 294.513 323.102C296.42 327.611 299.527 330.886 302.267 333.778C304.333 335.955 306.118 337.838 307.142 339.958C309.416 344.667 309.993 352.244 310.016 352.565L310.024 352.763C310.049 359.14 304.108 376.776 303.432 378.766L302.551 381.356L296.423 379.613C262.142 369.859 241.275 363.923 231.783 370.522C231.66 370.606 231.54 370.694 231.421 370.782C225.439 375.284 222.858 386.019 222.791 406.679C222.78 409.769 222.779 413.289 222.776 417.181C222.733 480.693 222.638 625.52 192.492 664.044ZM618.373 349.459C593.729 342.75 498.368 316.44 486.115 307.772C484.897 308.64 483.531 309.274 482.16 309.794C480.553 310.37 478.904 310.774 477.246 311.095C477.427 312.605 477.408 314.145 477.094 315.665C477.019 316.031 476.915 316.395 476.805 316.757C489.397 324.999 565.827 350.871 592.193 359.681C601.874 362.129 613.071 361.648 618.373 349.459ZM584.287 361.286C561.569 353.445 489.847 328.363 475.588 319.397C475.296 319.844 474.972 320.275 474.594 320.671C473.256 322.102 471.344 322.985 469.457 323.223C468.071 323.411 466.711 323.321 465.397 323.093C465.258 323.976 465.032 324.813 464.702 325.664C464.699 325.673 464.695 325.68 464.693 325.687C477.996 334.243 537.765 358.538 558.689 366.951C566.014 369.665 576.153 371.552 584.287 361.286ZM552.672 369.091C534.57 361.507 477.345 337.273 463.234 328.18C462.95 328.536 462.647 328.878 462.307 329.189C461.229 330.18 459.882 330.873 458.51 331.22C457.468 331.492 456.417 331.607 455.385 331.611C455.182 331.983 454.965 332.304 454.732 332.639C454.623 332.784 454.503 332.921 454.387 333.063C468.686 342.625 525.566 370.402 535.866 375.42C538.763 376.041 541.686 375.975 544.451 375.149C547.936 374.107 550.857 371.936 552.672 369.091ZM525.321 374.71C512.658 368.291 465.196 344.07 452.256 335.101C451.497 335.658 450.669 336.133 449.776 336.476C448.439 336.987 446.975 337.226 445.555 337.123C444.655 337.071 443.787 336.887 442.95 336.632C442.746 337.031 442.505 337.385 442.235 337.705L502.38 377.867C507.397 380.489 514.452 382.068 519.688 380.274C522.529 379.302 524.371 377.476 525.321 374.71ZM495.43 378.163L439.914 339.649C439.02 340.189 438.065 340.591 437.07 340.87C435.699 341.247 434.24 341.385 432.783 341.186C431.819 341.046 430.875 340.727 429.999 340.276C429.722 340.645 429.404 340.972 429.052 341.263L470.559 375.526L472.118 376.715C478.377 381.487 483.528 383.502 487.867 382.874C490.689 382.467 493.171 380.913 495.43 378.163ZM467.493 378.06L426.137 342.607C424.999 342.82 423.853 342.76 422.775 342.535C420.323 342.026 418.226 340.591 416.674 338.779C416.109 339.357 415.487 339.872 414.817 340.321L450.709 377.843L451.526 378.493C455.324 381.513 458.626 382.84 461.341 382.438C463.519 382.115 465.538 380.671 467.493 378.06ZM446.687 379.545L412.07 341.624C411.489 341.791 410.891 341.914 410.272 341.94C408.76 342.021 407.2 341.524 406.029 340.623C405.291 340.069 404.698 339.399 404.188 338.686C403.816 339.638 403.335 340.542 402.741 341.363C402.534 341.643 402.311 341.915 402.079 342.178L426.396 373.837L429.199 376.878C435.475 383.686 440.479 384.5 446.687 379.545ZM424.47 377.45L399.84 344.01C399.631 344.129 399.427 344.257 399.204 344.354C397.765 345.008 395.944 344.917 394.69 343.97C394.487 343.824 394.317 343.65 394.137 343.483L394.163 343.578L409.619 375.587C413.396 380.747 417.003 383.304 419.792 382.795C422.137 382.366 423.838 379.777 424.301 378.075L424.47 377.45ZM301.053 408.133C301.154 408.371 301.263 408.606 301.333 408.862C301.782 410.367 301.234 412.106 300.12 413.227C299.953 413.402 299.761 413.547 299.578 413.702L322.34 448.443L322.982 448.502C324.737 448.662 327.753 447.971 328.977 445.92C330.425 443.483 329.285 439.211 325.765 433.873L301.053 408.133ZM318.808 450.032L297.077 415.165C296.75 415.29 296.42 415.404 296.085 415.499C295.11 415.769 294.098 415.907 293.079 415.922C293.559 416.625 293.976 417.384 294.256 418.233C294.726 419.601 294.733 421.21 294.19 422.615C293.937 423.296 293.576 423.915 293.15 424.478L316.559 469.997C323.36 465.904 324.349 460.933 320.151 452.675L318.808 450.032ZM313.978 474.479L290.939 426.55C290.305 426.988 289.632 427.363 288.919 427.663C289.682 429.872 289.942 432.205 289.626 434.541C289.49 435.45 289.263 436.371 288.879 437.27L307.916 488.981C311.043 488.058 313.1 486.672 314.164 484.74C315.457 482.391 315.387 478.935 313.978 474.479ZM305.856 495.827L286.782 440.04C286.671 440.117 286.564 440.198 286.446 440.267C286.17 440.43 285.87 440.551 285.565 440.654C285.684 441.638 285.655 442.64 285.45 443.598C285.128 445.033 284.491 446.352 283.659 447.505C283.051 448.341 282.34 449.095 281.523 449.747L298.277 515.202C301.643 514.043 303.963 512.259 305.327 509.756C307.14 506.436 307.312 501.855 305.856 495.827ZM295.612 521.739L278.893 451.243C278.499 451.384 278.082 451.488 277.64 451.54C277.585 452.412 277.456 453.291 277.189 454.152C276.793 455.52 276.059 456.809 275.113 457.883C274.479 458.602 273.746 459.212 272.96 459.728C276.826 474.857 282.919 527.043 284.585 541.662C288.054 541.106 290.798 539.433 292.737 536.644C295.326 532.92 296.366 527.289 295.612 521.739ZM281.274 548.306C279.704 532.456 274.049 476.709 270.307 461.017C270.135 461.075 269.965 461.141 269.787 461.192C269.394 461.292 269.017 461.386 268.601 461.446C268.234 462.411 267.761 463.357 267.141 464.239C266.34 465.404 265.219 466.425 263.917 467.089C263.506 467.301 263.079 467.463 262.648 467.607C266.252 484.001 269.026 546.069 269.826 565.689C276.223 564.228 280.612 557.478 281.274 548.306ZM265.724 567.897C265.117 545.579 263.165 483.381 259.805 468.105C259.796 468.105 259.787 468.107 259.777 468.107C258.864 468.119 258.001 468.04 257.127 467.862C256.882 469.172 256.492 470.479 255.832 471.712C254.951 473.398 253.456 474.882 251.65 475.637C251.147 475.854 250.631 476.008 250.111 476.127C253.544 492.617 252.061 568.583 251.495 592.609C264.399 588.418 265.834 577.646 265.725 569.739C265.72 569.362 265.716 569.039 265.718 568.775L265.724 567.897ZM247.308 598.725C248.108 575.114 250.68 491.515 247.213 476.346C246.834 476.324 246.455 476.293 246.087 476.238C244.553 476.002 243.102 475.483 241.75 474.787C240.871 476.23 239.918 477.633 238.819 478.939C237.854 480.044 236.783 481.102 235.545 481.941C239.4 496.446 230.83 595.002 228.532 620.437C242.128 619.701 246.362 608.872 247.308 598.725ZM180.725 667.383L184.227 664.433C216.87 636.941 216.976 477.282 217.016 417.176C217.018 413.279 217.021 409.755 217.031 406.66C217.108 383.693 220.272 371.963 227.956 366.18C239.638 357.439 260.321 363.353 298 374.074L298.841 374.314C300.881 368.039 304.225 356.922 304.262 352.883C304.108 350.908 303.417 345.492 301.956 342.463C301.321 341.149 299.822 339.568 298.087 337.74C295.162 334.654 291.523 330.817 289.209 325.344C286.701 319.415 286.022 298.581 285.956 296.225L285.911 294.667L286.524 294.238C285.097 290.121 282.647 282.883 282.873 282.309C283.096 281.742 289.348 286.717 293.033 289.715L293.836 289.157L295.313 289.806C296.015 290.114 312.605 297.415 318.677 301.771C323.45 305.196 326.9 311.483 329.675 316.535C330.645 318.306 331.564 319.978 332.336 321.13C334.375 324.172 339.851 326.679 341.788 327.391L342.225 327.594C346.046 329.774 356.195 330.129 363.154 329.836L363.243 328.726C366.326 289.667 368.053 268.15 380.254 260.32C388.353 255.131 400.448 256.251 422.004 264.184C424.908 265.253 428.211 266.479 431.866 267.835C488.217 288.742 637.907 344.28 675.051 323.263L679.037 321.009L679.343 325.576C679.663 330.344 676.387 335.814 670.122 340.981C659.544 349.704 641.198 356.472 623.236 352.702C617.316 365.287 605.265 369.533 588.918 364.763C581.197 374.638 570.572 377.262 557.281 372.571C554.716 376.384 550.759 379.274 546.102 380.667C540.704 382.282 534.911 381.814 529.501 379.375C527.755 382.361 525.054 384.528 521.554 385.724C514.514 388.133 505.471 386.131 499.154 382.674C496.132 386.024 492.623 388.006 488.693 388.575C483.356 389.346 477.525 387.512 470.931 382.971C468.327 385.926 465.395 387.66 462.184 388.134C458.311 388.71 454.249 387.489 449.823 384.406C442.34 390.106 435.135 389.871 427.913 383.651C426.295 385.946 423.873 387.906 420.827 388.461C415.55 389.425 410.159 386.162 404.805 378.76L404.655 378.555L388.184 344.44C387.883 368.556 409.151 415.15 411.257 419.703C435.935 448.088 481.124 491.279 493.517 492.165L497.836 492.473L495.88 496.338C494.56 498.945 491.552 500.687 487.181 501.379C479.497 502.595 467.735 500.335 458.746 492.775C456.364 495.007 453.911 495.639 452.096 495.726C447.553 495.943 442.576 493.078 437.283 487.21C432.444 488.591 428.237 487.481 424.877 485.57C424.867 488.928 423.816 492.137 421.735 494.983C425.04 501.129 426.01 507.003 424.462 511.683C423.647 514.147 422.174 516.143 420.144 517.572C423.88 528.647 421.981 541.04 417.893 548.07C415.825 551.628 413.282 553.68 410.535 554.003L406.234 554.508L407.433 550.345C410.86 538.448 386.52 484.653 367.52 450.146C363.814 446.551 326.778 411.009 304.037 402.924L330.276 430.254L330.418 430.466C335.488 438.063 336.669 444.254 333.927 448.863C332.346 451.524 329.664 453.114 326.951 453.83C330.263 462.765 327.995 469.623 320.023 474.63C321.368 479.854 321.098 484.085 319.21 487.517C317.645 490.362 314.997 492.506 311.319 493.916C313.279 501.68 312.968 507.783 310.384 512.517C308.481 515.999 305.405 518.597 301.222 520.26C302.164 526.3 301.595 533.992 297.464 539.934C294.942 543.561 291.397 545.984 287.117 547.038C286.763 559.521 280.635 568.942 271.483 571.221C271.25 585.318 265.079 594.37 253.138 598.16C251.912 615.147 243.733 624.963 229.874 626.125C227.15 644.273 214.419 659.104 202.551 665.987C195.524 670.061 189.256 671.224 184.899 669.262L180.725 667.383ZM366.575 375.132C366.602 375.77 366.301 376.296 365.894 376.7C365.49 377.121 364.892 377.384 364.325 377.632C363.73 377.866 363.105 378.041 362.47 378.197L361.702 378.385L361.894 379.293C362.102 380.27 361.957 381.347 361.484 381.87C361.061 382.396 360.232 382.49 359.244 382.374L357.799 382.205L357.86 383.826C357.866 384.007 357.837 384.398 357.756 384.638C357.679 384.904 357.557 385.109 357.41 385.262C357.254 385.408 357.102 385.54 356.852 385.63C356.625 385.732 356.319 385.782 356.001 385.823L354.747 387.027C354.769 386.911 354.718 387.097 354.659 387.184C354.602 387.295 354.517 387.409 354.437 387.515C354.267 387.727 354.064 387.897 353.856 388.009C353.439 388.222 352.961 388.28 352.349 388.151L350.587 389.619C350.598 389.384 350.609 389.594 350.433 389.756C350.277 389.932 350.038 390.107 349.79 390.223C349.274 390.457 348.798 390.476 348.403 390.318L346.468 391.266C346.449 391.289 346.416 391.323 346.343 391.369C346.172 391.474 345.879 391.56 345.583 391.576C344.978 391.608 344.381 391.43 344.11 391.099L342.866 389.574L342.202 391.216C341.964 391.804 341.401 392.371 340.904 392.55C340.653 392.642 340.404 392.656 340.118 392.553C339.834 392.449 339.536 392.222 339.256 391.945L337.822 390.534L337.962 392.372C338.027 393.215 337.73 394.21 337.104 394.802C336.791 395.086 336.374 395.221 335.924 395.088C335.468 394.969 335.048 394.625 334.678 394.245C334.93 394.707 335.23 395.184 335.745 395.5C336.256 395.819 337.01 395.803 337.564 395.484C338.125 395.176 338.525 394.686 338.831 394.166C338.904 394.039 338.952 393.897 339.014 393.763C339.134 393.858 339.237 393.963 339.378 394.045C339.923 394.372 340.656 394.508 341.315 394.385C341.979 394.275 342.544 393.961 343.011 393.586C343.102 393.512 343.176 393.422 343.261 393.342C343.433 393.459 343.609 393.566 343.788 393.651C344.375 393.93 344.992 394.051 345.612 394.06C346.233 394.064 346.864 393.969 347.515 393.663C347.783 393.539 348.073 393.334 348.337 393.076C348.591 393.124 348.846 393.17 349.097 393.17C349.761 393.164 350.385 393.007 350.949 392.756C351.513 392.502 352.027 392.161 352.485 391.685C352.641 391.507 352.804 391.298 352.955 391.066C353.12 391.07 353.281 391.088 353.453 391.069C354.081 391.014 354.717 390.809 355.272 390.488C355.829 390.166 356.295 389.737 356.664 389.256C356.846 389.012 357.014 388.763 357.156 388.48C357.162 388.465 357.169 388.449 357.177 388.435C357.437 388.368 357.701 388.286 357.964 388.166C358.541 387.937 359.096 387.497 359.505 386.979C359.922 386.455 360.18 385.842 360.305 385.253C360.333 385.108 360.355 384.971 360.372 384.835C360.659 384.8 360.946 384.767 361.242 384.673C362.02 384.434 362.806 383.888 363.273 383.161C363.749 382.438 363.928 381.63 363.946 380.889C363.958 380.413 363.882 379.96 363.773 379.518C364.181 379.332 364.585 379.133 364.978 378.902C365.601 378.47 366.238 378.03 366.69 377.346C367.161 376.693 367.347 375.795 367.134 375.057C366.96 374.302 366.485 373.74 366.078 373.188C366.334 373.839 366.578 374.5 366.575 375.132ZM364.051 362.536C364.093 363.273 363.759 363.897 363.29 364.376C362.826 364.873 362.144 365.186 361.493 365.482C360.811 365.758 360.095 365.967 359.368 366.153L358.591 366.35L358.793 367.249C359.048 368.385 358.906 369.649 358.333 370.314C357.81 370.987 356.787 371.107 355.635 370.974L354.16 370.805L354.252 372.427C354.265 372.669 354.231 373.123 354.137 373.422C354.045 373.747 353.898 374.012 353.71 374.21C353.515 374.402 353.313 374.576 353.007 374.686C352.722 374.816 352.355 374.875 351.976 374.925L350.724 376.128C350.74 376.042 350.676 376.258 350.6 376.372C350.53 376.511 350.431 376.65 350.331 376.78C350.122 377.041 349.874 377.253 349.611 377.394C349.347 377.54 349.065 377.61 348.759 377.648C348.457 377.7 348.103 377.635 347.748 377.577L345.986 379.046C345.997 378.873 345.972 379.14 345.756 379.348C345.557 379.57 345.263 379.78 344.959 379.922C344.33 380.209 343.716 380.235 343.211 380.018L341.273 380.967C341.286 380.955 341.277 381.066 341.032 381.212C340.802 381.348 340.444 381.444 340.085 381.461C339.353 381.495 338.617 381.269 338.276 380.83L337.071 379.292L336.367 380.946C336.069 381.649 335.403 382.315 334.778 382.525C334.463 382.634 334.145 382.639 333.801 382.505C333.457 382.372 333.113 382.098 332.792 381.774L331.392 380.359L331.497 382.199C331.555 383.188 331.197 384.332 330.449 385.013C330.076 385.337 329.576 385.484 329.059 385.319C328.535 385.171 328.064 384.767 327.652 384.33C327.947 384.852 328.297 385.386 328.878 385.732C329.459 386.083 330.295 386.056 330.91 385.696C331.531 385.344 331.976 384.793 332.313 384.205C332.414 384.03 332.481 383.835 332.561 383.647C332.714 383.773 332.877 383.893 333.06 383.998C333.663 384.354 334.466 384.499 335.188 384.36C335.916 384.236 336.54 383.889 337.056 383.471C337.193 383.357 337.309 383.224 337.434 383.1C337.65 383.253 337.872 383.393 338.101 383.501C338.748 383.805 339.43 383.937 340.114 383.945C340.799 383.949 341.495 383.841 342.201 383.505C342.523 383.357 342.868 383.117 343.169 382.8C343.474 382.863 343.782 382.913 344.086 382.912C344.812 382.905 345.497 382.732 346.119 382.454C346.741 382.175 347.306 381.799 347.806 381.276C348 381.056 348.202 380.802 348.379 380.506C348.595 380.515 348.809 380.535 349.035 380.509C349.723 380.448 350.419 380.226 351.028 379.874C351.638 379.522 352.152 379.051 352.559 378.522C352.76 378.252 352.944 377.976 353.098 377.668C353.119 377.626 353.137 377.587 353.156 377.545C353.476 377.471 353.797 377.369 354.119 377.223C354.751 376.972 355.356 376.492 355.806 375.927C356.262 375.355 356.547 374.685 356.687 374.037C356.725 373.838 356.754 373.648 356.774 373.462C357.141 373.426 357.51 373.375 357.886 373.257C358.746 372.996 359.607 372.402 360.122 371.604C360.647 370.812 360.851 369.922 360.875 369.095C360.891 368.536 360.799 368.003 360.668 367.484C361.168 367.263 361.665 367.031 362.146 366.751C362.851 366.27 363.575 365.782 364.087 365.021C364.62 364.294 364.84 363.297 364.608 362.463C364.424 361.609 363.899 360.961 363.445 360.326C363.748 361.062 364.04 361.807 364.051 362.536ZM317.831 379.255C317.11 378.847 316.658 378.196 316.275 377.554C316.775 378.113 317.349 378.633 318.011 378.842C318.666 379.072 319.333 378.904 319.83 378.494C320.822 377.633 321.305 376.182 321.262 374.896L321.203 373.055L322.557 374.471C322.964 374.898 323.406 375.265 323.868 375.46C324.331 375.656 324.788 375.665 325.234 375.527C326.121 375.253 326.994 374.384 327.417 373.45L328.167 371.788L329.325 373.333C329.82 373.994 330.831 374.315 331.82 374.279C332.309 374.261 332.801 374.137 333.147 373.941C333.509 373.739 333.619 373.528 333.632 373.405L333.799 371.644L335.569 372.458C336.303 372.795 337.197 372.754 338.056 372.36C338.477 372.165 338.876 371.881 339.162 371.566C339.466 371.267 339.562 370.883 339.549 370.926L341.312 369.457C341.791 369.541 342.267 369.628 342.695 369.56C343.126 369.506 343.531 369.401 343.904 369.194C344.276 368.99 344.62 368.693 344.905 368.334C345.043 368.152 345.179 367.962 345.277 367.768C345.382 367.596 345.47 367.324 345.463 367.348L346.717 366.144C347.22 366.079 347.712 365.999 348.111 365.815C348.536 365.66 348.838 365.404 349.115 365.118C349.382 364.823 349.583 364.442 349.705 363.995C349.825 363.573 349.869 362.991 349.841 362.624L349.717 361.003L351.227 361.174C352.711 361.341 354.127 361.165 354.855 360.193C355.627 359.241 355.768 357.594 355.414 356.135L355.202 355.267L355.989 355.039L357.351 354.644C357.799 354.499 358.22 354.311 358.663 354.149C359.483 353.757 360.342 353.344 360.927 352.689C361.522 352.059 361.925 351.231 361.848 350.3C361.814 349.373 361.419 348.453 361.023 347.546C361.57 348.354 362.197 349.175 362.407 350.226C362.672 351.256 362.382 352.456 361.723 353.333C361.09 354.253 360.192 354.843 359.315 355.42C358.857 355.655 358.399 355.912 357.929 356.122L357.285 356.386C357.461 357.066 357.585 357.762 357.558 358.492C357.521 359.489 357.27 360.551 356.643 361.485C356.029 362.423 355.015 363.117 353.987 363.422C353.446 363.588 352.909 363.667 352.381 363.7C352.356 363.997 352.316 364.294 352.254 364.609C352.084 365.378 351.746 366.166 351.209 366.835C350.678 367.495 349.974 368.056 349.223 368.352C348.788 368.551 348.353 368.671 347.917 368.764C347.873 368.864 347.825 368.961 347.774 369.063C347.592 369.43 347.371 369.756 347.132 370.076C346.648 370.705 346.041 371.26 345.322 371.674C344.603 372.087 343.784 372.346 342.971 372.421C342.637 372.459 342.314 372.439 341.995 372.415C341.772 372.845 341.485 373.191 341.214 373.495C340.627 374.11 339.953 374.56 339.216 374.894C338.479 375.223 337.666 375.427 336.814 375.436C336.394 375.44 335.968 375.387 335.553 375.285C335.183 375.715 334.738 376.041 334.317 376.236C333.493 376.632 332.664 376.764 331.849 376.762C331.036 376.755 330.221 376.6 329.455 376.244C329.121 376.092 328.798 375.89 328.495 375.655C328.293 375.875 328.091 376.093 327.86 376.286C327.244 376.792 326.502 377.209 325.643 377.364C324.794 377.531 323.848 377.371 323.128 376.952C322.845 376.793 322.599 376.604 322.37 376.403C322.256 376.724 322.133 377.043 321.972 377.339C321.57 378.06 321.035 378.737 320.289 379.176C319.55 379.622 318.548 379.669 317.831 379.255Z" fill="white"/>
</g>
</g>
<defs>
<clipPath id="clip0_43_4460">
<rect width="671.912" height="671.912" fill="white" transform="translate(791.782 658.754) rotate(168.643)"/>
</clipPath>
</defs>
</svg>
