<svg width="619" height="470" viewBox="0 0 619 470" fill="none" xmlns="http://www.w3.org/2000/svg">
<path d="M83.4924 461.044C85.4717 460.569 87.8756 459.62 90.6607 458.005C101.793 451.553 113.769 437.325 115.45 420.081L115.7 417.503L115.894 417.502C118.716 387.697 127.098 295.301 123.889 280.226C122.354 280.67 120.677 280.645 119.229 280.033C117.325 279.323 115.926 277.87 114.523 276.566C116.053 277.745 117.6 278.976 119.411 279.513C121.203 280.104 123.135 279.801 124.705 278.866C126.297 277.952 127.588 276.543 128.706 275.048C129.731 273.675 130.612 272.185 131.421 270.654L128.452 232.688L134.279 270.489C135.278 270.864 136.316 271.13 137.352 271.249C138.891 271.429 140.445 271.256 141.743 270.628C143.047 270.013 144.059 268.939 144.7 267.605C145.283 266.417 145.602 265.06 145.765 263.664L145.703 263.682L137.625 230.33L148.272 262.288C149.045 262.451 149.905 262.53 150.685 262.488C151.752 262.438 152.77 262.174 153.652 261.693C155.284 260.809 156.412 259.142 157.077 257.202L145.724 227.159L159.459 255.623C159.645 255.585 159.835 255.54 160.013 255.488C160.515 255.339 161.014 255.14 161.488 254.902C162.438 254.424 163.293 253.779 163.965 253C165.271 251.516 165.848 249.529 165.823 247.435L153.45 220.719L168.131 245.749C168.693 245.709 169.429 245.451 170.07 245.047C170.959 244.502 171.768 243.734 172.408 242.863C173.608 241.247 174.175 239.25 173.808 237.39L159.244 213.915L175.713 235.155C176.221 235.01 176.674 234.677 177.072 234.117C177.632 233.334 177.989 232.263 178.171 231.162C178.472 229.256 178.339 227.21 177.774 225.34L164.004 207.099L179.132 222.639C180.984 221.943 182.682 220.626 183.443 218.916C183.888 217.925 183.961 216.805 183.659 215.709C183.459 214.957 183.099 214.231 182.657 213.538L169.395 200.137L184.747 211.616C185.441 211.614 186.137 211.546 186.821 211.409C188.188 211.133 189.535 210.586 190.569 209.666C191.6 208.759 192.186 207.361 191.893 205.957C191.825 205.542 191.69 205.139 191.528 204.749L175.262 193.125L188.288 200.032C188.146 199.309 188.136 198.57 188.307 197.854C188.884 195.46 191.028 193.922 194.047 193.745L194.562 193.715L195.055 193.865C220.011 201.458 261.115 241.62 262.852 243.326L263.152 243.621L263.357 243.99C274.081 263.429 301.614 317.878 304.241 341.584C307.378 335.677 308.757 325.287 305.608 316.187C299.745 303.727 292.881 287.265 287.031 275.978C283.772 269.678 280.461 263.405 277.041 257.191C275.342 254.079 273.586 250.996 271.788 247.941C270.85 246.44 269.99 244.883 268.986 243.423L267.505 241.215L265.816 239.162L267.577 241.161L269.134 243.322C270.192 244.753 271.103 246.277 272.095 247.751C273.997 250.751 275.86 253.776 277.666 256.832C281.298 262.936 284.824 269.101 288.297 275.294C294.782 286.833 301.104 298.456 307.352 310.131C308.619 309.389 309.518 308.31 309.994 306.874C310.798 304.443 310.435 301.245 309.055 297.742C303.278 287.156 296.773 273.863 291.073 264.412C287.771 258.934 284.434 253.479 281.003 248.08C279.297 245.377 277.551 242.696 275.764 240.046C274.847 238.738 273.985 237.387 273.01 236.122L271.574 234.202L269.995 232.398L271.643 234.144L273.152 236.012C274.18 237.245 275.09 238.562 276.058 239.839C277.946 242.425 279.794 245.039 281.603 247.684C285.239 252.955 288.782 258.289 292.292 263.645C297.67 271.851 302.951 280.116 308.197 288.408C311.035 284.396 310.28 280.237 308.844 277.116C303.69 269.275 298.081 260.006 293.447 253.156C290.496 248.779 287.562 244.392 284.724 239.938C283.3 237.715 281.897 235.478 280.553 233.204C279.879 232.069 279.203 230.935 278.588 229.764C277.927 228.622 277.383 227.41 276.845 226.209C277.467 227.377 278.083 228.532 278.822 229.627C279.51 230.748 280.26 231.83 281.008 232.913C282.498 235.081 284.046 237.212 285.614 239.326C288.739 243.563 291.959 247.733 295.195 251.887C299.385 257.253 305.974 264.39 311.912 270.967L311.93 270.954C311.96 270.997 311.986 271.039 312.015 271.081C313.533 272.764 315.01 274.411 316.388 275.978C318.935 278.061 322.365 279.696 326.364 278.734C320.24 271.294 314.153 263.825 308.158 256.281C304.112 251.191 300.103 246.071 296.189 240.877C294.223 238.288 292.301 235.664 290.421 233.011C289.511 231.662 288.529 230.365 287.687 228.97L286.388 226.907L285.274 224.735L286.465 226.86L287.836 228.871C288.726 230.226 289.756 231.488 290.711 232.799C292.685 235.376 294.698 237.921 296.756 240.433C300.852 245.47 305.043 250.433 309.269 255.364C314.713 261.721 322.699 269.828 330.007 277.381L330.02 277.376L330.137 277.515C332.309 279.759 334.412 281.949 336.376 284.031C338.826 286.029 341.034 287.057 342.822 286.973C344.304 286.901 345.638 286.005 346.896 284.297C338.38 274.851 329.924 265.361 321.591 255.757C316.77 250.211 311.999 244.621 307.318 238.955C304.97 236.128 302.671 233.258 300.41 230.361C299.318 228.881 298.156 227.458 297.124 225.935L295.562 223.661C295.095 222.871 294.674 222.05 294.23 221.25C294.702 222.039 295.146 222.842 295.638 223.613L297.269 225.829C298.346 227.313 299.556 228.699 300.691 230.138C303.043 232.956 305.429 235.742 307.865 238.486C312.722 243.991 317.669 249.415 322.664 254.796C329.583 262.264 339.962 272.242 349.078 281.178L349.098 281.149L351.057 283.121C351.288 283.348 351.515 283.572 351.744 283.799C359.157 291.107 370.155 293.812 377.267 292.692C357.014 282.737 316.573 241.996 297.641 220.172L297.382 219.871L297.211 219.511C296.178 217.314 271.914 165.408 273.497 139.34L273.528 138.826L273.735 138.355C274.952 135.586 277.141 134.112 279.587 134.406C280.309 134.494 280.988 134.755 281.61 135.132L279.7 120.531L284.972 139.874C285.27 140.146 285.585 140.392 285.933 140.592C287.147 141.354 288.659 141.294 289.87 140.642C291.092 139.995 292.075 138.923 292.811 137.737C293.181 137.135 293.492 136.495 293.738 135.834L288.316 117.474L296.395 134.743C296.868 135.337 297.394 135.866 297.994 136.263C298.942 136.903 300.045 137.177 301.149 137.062C302.974 136.87 304.745 135.777 306.051 134.349L296.721 114.848L308.752 133.542C310.149 135.363 312.129 136.699 314.263 137.102C315.348 137.303 316.473 137.255 317.396 136.879C318.081 136.61 318.611 136.176 318.957 135.628L304.77 112.761L321.697 134.592C323.313 135.586 325.381 135.75 327.316 135.187C328.353 134.892 329.357 134.401 330.177 133.757C330.78 133.298 331.279 132.698 331.51 132.183L313.165 109.703L333.895 130.609C335.85 131.361 337.913 131.513 339.758 130.807C340.723 130.448 341.625 129.873 342.405 129.147C342.794 128.786 343.153 128.387 343.468 127.969C343.579 127.822 343.687 127.659 343.788 127.498L321.894 104.705L346.098 125.814C348.149 125.868 350.104 125.389 351.501 124.17C352.259 123.512 352.861 122.647 353.279 121.665C353.591 120.948 353.817 120.115 353.933 119.334L327.688 98.219L356.134 117.411L356.096 117.463C357.462 117.799 358.845 117.971 360.161 117.838C361.636 117.703 362.995 117.128 364.026 116.12C365.066 115.122 365.77 113.727 366.138 112.222C366.403 111.149 366.519 110.022 366.499 108.893L333.096 90.439L367.908 106.414C369.536 106.19 371.151 105.898 372.712 105.441C374.505 104.915 376.273 104.195 377.685 103.022C379.109 101.876 380.066 100.169 380.136 98.2846C380.264 96.3987 379.65 94.5208 379.076 92.6769C379.809 94.4469 380.684 96.2619 380.687 98.2952C380.756 99.8652 380.196 101.444 379.245 102.728C392.69 111.21 490.753 137.289 518.494 144.574C533.567 146.648 548.56 140.879 557.459 133.536C559.942 131.488 561.671 129.564 562.804 127.875C516.191 142.706 380.408 92.3277 320.863 70.2348C317.215 68.8825 313.915 67.6571 311.014 66.5894C291.625 59.4533 280.663 58.1318 274.359 62.1696C274.236 62.2504 274.111 62.3336 273.99 62.4175C264.496 69.0169 262.79 90.6432 259.986 126.178L259.505 132.265L257.037 132.443C255.087 132.584 237.934 133.695 230.588 129.716C229.022 129.119 221.785 126.161 218.552 121.336C217.636 119.971 216.659 118.192 215.625 116.307C213.132 111.765 210.03 106.114 206.321 103.451C201.718 100.148 189.666 94.6223 185.466 92.7339L182.764 94.6123C183.078 103.243 184.034 116.601 185.513 120.102C187.42 124.611 190.527 127.886 193.267 130.778C195.333 132.955 197.118 134.838 198.142 136.958C200.416 141.667 200.993 149.244 201.016 149.565L201.024 149.763C201.049 156.14 195.108 173.776 194.432 175.766L193.551 178.356L187.423 176.613C153.142 166.859 132.275 160.923 122.783 167.522C122.66 167.606 122.54 167.694 122.421 167.782C116.439 172.284 113.858 183.019 113.791 203.679C113.78 206.769 113.779 210.289 113.776 214.181C113.733 277.693 113.638 422.52 83.4924 461.044ZM509.373 146.459C484.729 139.75 389.368 113.44 377.115 104.772C375.897 105.64 374.531 106.274 373.16 106.794C371.553 107.37 369.904 107.774 368.246 108.095C368.427 109.605 368.408 111.145 368.094 112.665C368.019 113.031 367.915 113.395 367.805 113.757C380.397 121.999 456.827 147.871 483.193 156.681C492.874 159.129 504.071 158.648 509.373 146.459ZM475.287 158.286C452.569 150.445 380.847 125.363 366.588 116.397C366.296 116.844 365.972 117.275 365.594 117.671C364.256 119.102 362.344 119.985 360.457 120.223C359.071 120.411 357.711 120.321 356.397 120.093C356.258 120.976 356.032 121.813 355.702 122.664C355.699 122.673 355.695 122.68 355.693 122.687C368.996 131.243 428.765 155.538 449.689 163.951C457.014 166.665 467.153 168.552 475.287 158.286ZM443.672 166.091C425.57 158.507 368.345 134.273 354.234 125.18C353.95 125.536 353.647 125.878 353.307 126.189C352.229 127.18 350.882 127.873 349.51 128.22C348.468 128.492 347.417 128.607 346.385 128.611C346.182 128.983 345.965 129.304 345.732 129.639C345.623 129.784 345.503 129.921 345.387 130.063C359.686 139.625 416.566 167.402 426.866 172.42C429.763 173.041 432.686 172.975 435.451 172.149C438.936 171.107 441.857 168.936 443.672 166.091ZM416.321 171.71C403.658 165.291 356.196 141.07 343.256 132.101C342.497 132.658 341.669 133.133 340.776 133.476C339.439 133.987 337.975 134.226 336.555 134.123C335.655 134.071 334.787 133.887 333.95 133.632C333.746 134.031 333.505 134.385 333.235 134.705L393.38 174.867C398.397 177.489 405.452 179.068 410.688 177.274C413.529 176.302 415.371 174.476 416.321 171.71ZM386.43 175.163L330.914 136.649C330.02 137.189 329.065 137.591 328.07 137.87C326.699 138.247 325.24 138.385 323.783 138.186C322.819 138.046 321.875 137.727 320.999 137.276C320.722 137.645 320.404 137.972 320.052 138.263L361.559 172.526L363.118 173.715C369.377 178.487 374.528 180.502 378.867 179.874C381.689 179.467 384.171 177.913 386.43 175.163ZM358.493 175.06L317.137 139.607C315.999 139.82 314.853 139.76 313.775 139.535C311.323 139.026 309.226 137.591 307.674 135.779C307.109 136.357 306.487 136.872 305.817 137.321L341.709 174.843L342.526 175.493C346.324 178.513 349.626 179.84 352.341 179.438C354.519 179.115 356.538 177.671 358.493 175.06ZM337.687 176.545L303.07 138.624C302.489 138.791 301.891 138.914 301.272 138.94C299.76 139.021 298.2 138.524 297.029 137.623C296.291 137.069 295.698 136.399 295.188 135.686C294.816 136.638 294.335 137.542 293.741 138.363C293.534 138.643 293.311 138.915 293.079 139.178L317.396 170.837L320.199 173.878C326.475 180.686 331.479 181.5 337.687 176.545ZM315.47 174.45L290.84 141.01C290.631 141.129 290.427 141.257 290.204 141.354C288.765 142.008 286.944 141.917 285.69 140.97C285.487 140.824 285.317 140.65 285.137 140.483L285.163 140.578L300.619 172.587C304.396 177.747 308.003 180.304 310.792 179.795C313.137 179.366 314.838 176.777 315.301 175.075L315.47 174.45ZM192.053 205.133C192.154 205.371 192.263 205.606 192.333 205.862C192.782 207.367 192.234 209.106 191.12 210.227C190.953 210.402 190.761 210.547 190.578 210.702L213.34 245.443L213.982 245.502C215.737 245.662 218.753 244.971 219.977 242.92C221.425 240.483 220.285 236.211 216.765 230.873L192.053 205.133ZM209.808 247.032L188.077 212.165C187.75 212.29 187.42 212.404 187.085 212.499C186.11 212.769 185.098 212.907 184.079 212.922C184.559 213.625 184.976 214.384 185.256 215.233C185.726 216.601 185.733 218.21 185.19 219.615C184.937 220.296 184.576 220.915 184.15 221.478L207.559 266.997C214.36 262.904 215.349 257.933 211.151 249.675L209.808 247.032ZM204.978 271.479L181.939 223.55C181.305 223.988 180.632 224.363 179.919 224.663C180.682 226.872 180.942 229.205 180.626 231.541C180.49 232.45 180.263 233.371 179.879 234.27L198.916 285.981C202.043 285.058 204.1 283.672 205.164 281.74C206.457 279.391 206.387 275.935 204.978 271.479ZM196.856 292.827L177.782 237.04C177.671 237.117 177.564 237.198 177.446 237.267C177.17 237.43 176.87 237.551 176.565 237.654C176.684 238.638 176.655 239.64 176.45 240.598C176.128 242.033 175.491 243.352 174.659 244.505C174.051 245.341 173.34 246.095 172.523 246.747L189.277 312.202C192.643 311.043 194.963 309.259 196.327 306.756C198.14 303.436 198.312 298.855 196.856 292.827ZM186.612 318.739L169.893 248.243C169.499 248.384 169.082 248.488 168.64 248.54C168.585 249.412 168.456 250.291 168.189 251.152C167.793 252.52 167.059 253.809 166.113 254.883C165.479 255.602 164.746 256.212 163.96 256.728C167.826 271.857 173.919 324.043 175.585 338.662C179.054 338.106 181.798 336.433 183.737 333.644C186.326 329.92 187.366 324.289 186.612 318.739ZM172.274 345.306C170.704 329.456 165.049 273.709 161.307 258.017C161.135 258.075 160.965 258.141 160.787 258.192C160.394 258.292 160.017 258.386 159.601 258.446C159.234 259.411 158.761 260.357 158.141 261.239C157.34 262.404 156.219 263.425 154.917 264.089C154.506 264.301 154.079 264.463 153.648 264.607C157.252 281.001 160.026 343.069 160.826 362.689C167.223 361.228 171.612 354.478 172.274 345.306ZM156.724 364.897C156.117 342.579 154.165 280.381 150.805 265.105C150.796 265.105 150.787 265.107 150.777 265.107C149.864 265.119 149.001 265.04 148.127 264.862C147.882 266.172 147.492 267.479 146.832 268.712C145.951 270.398 144.456 271.882 142.65 272.637C142.147 272.854 141.631 273.008 141.111 273.127C144.544 289.617 143.061 365.583 142.495 389.609C155.399 385.418 156.834 374.646 156.725 366.739C156.72 366.362 156.716 366.039 156.718 365.775L156.724 364.897ZM138.308 395.725C139.108 372.114 141.68 288.515 138.213 273.346C137.834 273.324 137.455 273.293 137.087 273.238C135.553 273.002 134.102 272.483 132.75 271.787C131.871 273.23 130.918 274.633 129.819 275.939C128.854 277.044 127.783 278.102 126.545 278.941C130.4 293.446 121.83 392.002 119.532 417.437C133.128 416.701 137.362 405.872 138.308 395.725ZM71.7246 464.383L75.2266 461.433C107.87 433.941 107.976 274.282 108.016 214.176C108.018 210.279 108.021 206.755 108.031 203.66C108.108 180.693 111.272 168.963 118.956 163.18C130.638 154.439 151.321 160.353 189 171.074L189.841 171.314C191.881 165.039 195.225 153.922 195.262 149.883C195.108 147.908 194.417 142.492 192.956 139.463C192.321 138.149 190.822 136.568 189.087 134.74C186.162 131.654 182.523 127.817 180.209 122.344C177.701 116.415 177.022 95.5814 176.956 93.2253L176.911 91.6667L177.524 91.2381C176.097 87.1214 173.647 79.8827 173.873 79.3092C174.096 78.7423 180.348 83.7173 184.033 86.715L184.836 86.1575L186.313 86.8061C187.015 87.1137 203.605 94.4147 209.677 98.7709C214.45 102.196 217.9 108.483 220.675 113.535C221.645 115.306 222.564 116.978 223.336 118.13C225.375 121.172 230.851 123.679 232.788 124.391L233.225 124.594C237.046 126.774 247.195 127.129 254.154 126.836L254.243 125.726C257.326 86.6672 259.053 65.1496 271.254 57.3201C279.353 52.1314 291.448 53.2509 313.004 61.1838C315.908 62.2532 319.211 63.479 322.866 64.8347C379.217 85.7417 528.907 141.28 566.051 120.263L570.037 118.009L570.343 122.576C570.663 127.344 567.387 132.814 561.122 137.981C550.544 146.704 532.198 153.472 514.236 149.702C508.316 162.287 496.265 166.533 479.918 161.763C472.197 171.638 461.572 174.262 448.281 169.571C445.716 173.384 441.759 176.274 437.102 177.667C431.704 179.282 425.911 178.814 420.501 176.375C418.755 179.361 416.054 181.528 412.554 182.724C405.514 185.133 396.471 183.131 390.154 179.674C387.132 183.024 383.623 185.006 379.693 185.575C374.356 186.346 368.525 184.512 361.931 179.971C359.327 182.926 356.395 184.66 353.184 185.134C349.311 185.71 345.249 184.489 340.823 181.406C333.34 187.106 326.135 186.871 318.913 180.651C317.295 182.946 314.873 184.906 311.827 185.461C306.55 186.425 301.159 183.162 295.805 175.76L295.655 175.555L279.184 141.44C278.883 165.556 300.151 212.15 302.257 216.703C326.935 245.088 372.124 288.279 384.517 289.165L388.836 289.473L386.88 293.338C385.56 295.945 382.552 297.687 378.181 298.379C370.497 299.595 358.735 297.335 349.746 289.775C347.364 292.007 344.911 292.639 343.096 292.726C338.553 292.943 333.576 290.078 328.283 284.21C323.444 285.591 319.237 284.481 315.877 282.57C315.867 285.928 314.816 289.137 312.735 291.983C316.04 298.129 317.01 304.003 315.462 308.683C314.647 311.147 313.174 313.143 311.144 314.572C314.88 325.647 312.981 338.04 308.893 345.07C306.825 348.628 304.282 350.68 301.535 351.003L297.234 351.508L298.433 347.345C301.86 335.448 277.52 281.653 258.52 247.146C254.814 243.551 217.778 208.009 195.037 199.924L221.276 227.254L221.418 227.466C226.488 235.063 227.669 241.254 224.927 245.863C223.346 248.524 220.664 250.114 217.951 250.83C221.263 259.765 218.995 266.623 211.023 271.63C212.368 276.854 212.098 281.085 210.21 284.517C208.645 287.362 205.997 289.506 202.319 290.916C204.279 298.68 203.968 304.783 201.384 309.517C199.481 312.999 196.405 315.597 192.222 317.26C193.164 323.3 192.595 330.992 188.464 336.934C185.942 340.561 182.397 342.984 178.117 344.038C177.763 356.521 171.635 365.942 162.483 368.221C162.25 382.318 156.079 391.37 144.138 395.16C142.912 412.147 134.733 421.963 120.874 423.125C118.15 441.273 105.419 456.104 93.5508 462.987C86.5239 467.061 80.2562 468.224 75.8993 466.262L71.7246 464.383ZM257.575 172.132C257.602 172.77 257.301 173.296 256.894 173.7C256.49 174.121 255.892 174.384 255.325 174.632C254.73 174.866 254.105 175.041 253.47 175.197L252.702 175.385L252.894 176.293C253.102 177.27 252.957 178.347 252.484 178.87C252.061 179.396 251.232 179.49 250.244 179.374L248.799 179.205L248.86 180.826C248.866 181.007 248.837 181.398 248.756 181.638C248.679 181.904 248.557 182.109 248.41 182.262C248.254 182.408 248.102 182.54 247.852 182.63C247.625 182.732 247.319 182.782 247.001 182.823L245.747 184.027C245.769 183.911 245.718 184.097 245.659 184.184C245.602 184.295 245.517 184.409 245.437 184.515C245.267 184.727 245.064 184.897 244.856 185.009C244.439 185.222 243.961 185.28 243.349 185.151L241.587 186.619C241.598 186.384 241.609 186.594 241.433 186.756C241.277 186.932 241.038 187.107 240.79 187.223C240.274 187.457 239.798 187.476 239.403 187.318L237.468 188.266C237.449 188.289 237.416 188.323 237.343 188.369C237.172 188.474 236.879 188.56 236.583 188.576C235.978 188.608 235.381 188.43 235.11 188.099L233.866 186.574L233.202 188.216C232.964 188.804 232.401 189.371 231.904 189.55C231.653 189.642 231.404 189.656 231.118 189.553C230.834 189.449 230.536 189.222 230.256 188.945L228.822 187.534L228.962 189.372C229.027 190.215 228.73 191.21 228.104 191.802C227.791 192.086 227.374 192.221 226.924 192.088C226.468 191.969 226.048 191.625 225.678 191.245C225.93 191.707 226.23 192.184 226.745 192.5C227.256 192.819 228.01 192.803 228.564 192.484C229.125 192.176 229.525 191.686 229.831 191.166C229.904 191.039 229.952 190.897 230.014 190.763C230.134 190.858 230.237 190.963 230.378 191.045C230.923 191.372 231.656 191.508 232.315 191.385C232.979 191.275 233.544 190.961 234.011 190.586C234.102 190.512 234.176 190.422 234.261 190.342C234.433 190.459 234.609 190.566 234.788 190.651C235.375 190.93 235.992 191.051 236.612 191.06C237.233 191.064 237.864 190.969 238.515 190.663C238.783 190.539 239.073 190.334 239.337 190.076C239.591 190.124 239.846 190.17 240.097 190.17C240.761 190.164 241.385 190.007 241.949 189.756C242.513 189.502 243.027 189.161 243.485 188.685C243.641 188.507 243.804 188.298 243.955 188.066C244.12 188.07 244.281 188.088 244.453 188.069C245.081 188.014 245.717 187.809 246.272 187.488C246.829 187.166 247.295 186.737 247.664 186.256C247.846 186.012 248.014 185.763 248.156 185.48C248.162 185.465 248.169 185.449 248.177 185.435C248.437 185.368 248.701 185.286 248.964 185.166C249.541 184.937 250.096 184.497 250.505 183.979C250.922 183.455 251.18 182.842 251.305 182.253C251.333 182.108 251.355 181.971 251.372 181.835C251.659 181.8 251.946 181.767 252.242 181.673C253.02 181.434 253.806 180.888 254.273 180.161C254.749 179.438 254.928 178.63 254.946 177.889C254.958 177.413 254.882 176.96 254.773 176.518C255.181 176.332 255.585 176.133 255.978 175.902C256.601 175.47 257.238 175.03 257.69 174.346C258.161 173.693 258.347 172.795 258.134 172.057C257.96 171.302 257.485 170.74 257.078 170.188C257.334 170.839 257.578 171.5 257.575 172.132ZM255.051 159.536C255.093 160.273 254.759 160.897 254.29 161.376C253.826 161.873 253.144 162.186 252.493 162.482C251.811 162.758 251.095 162.967 250.368 163.153L249.591 163.35L249.793 164.249C250.048 165.385 249.906 166.649 249.333 167.314C248.81 167.987 247.787 168.107 246.635 167.974L245.16 167.805L245.252 169.427C245.265 169.669 245.231 170.123 245.137 170.422C245.045 170.747 244.898 171.012 244.71 171.21C244.515 171.402 244.313 171.576 244.007 171.686C243.722 171.816 243.355 171.875 242.976 171.925L241.724 173.128C241.74 173.042 241.676 173.258 241.6 173.372C241.53 173.511 241.431 173.65 241.331 173.78C241.122 174.041 240.874 174.253 240.611 174.394C240.347 174.54 240.065 174.61 239.759 174.648C239.457 174.7 239.103 174.635 238.748 174.577L236.986 176.046C236.997 175.873 236.972 176.14 236.756 176.348C236.557 176.57 236.263 176.78 235.959 176.922C235.33 177.209 234.716 177.235 234.211 177.018L232.273 177.967C232.286 177.955 232.277 178.066 232.032 178.212C231.802 178.348 231.444 178.444 231.085 178.461C230.353 178.495 229.617 178.269 229.276 177.83L228.071 176.292L227.367 177.946C227.069 178.649 226.403 179.315 225.778 179.525C225.463 179.634 225.145 179.639 224.801 179.505C224.457 179.372 224.113 179.098 223.792 178.774L222.392 177.359L222.497 179.199C222.555 180.188 222.197 181.332 221.449 182.013C221.076 182.337 220.576 182.484 220.059 182.319C219.535 182.171 219.064 181.767 218.652 181.33C218.947 181.852 219.297 182.386 219.878 182.732C220.459 183.083 221.295 183.056 221.91 182.696C222.531 182.344 222.976 181.793 223.313 181.205C223.414 181.03 223.481 180.835 223.561 180.647C223.714 180.773 223.877 180.893 224.06 180.998C224.663 181.354 225.466 181.499 226.188 181.36C226.916 181.236 227.54 180.889 228.056 180.471C228.193 180.357 228.309 180.224 228.434 180.1C228.65 180.253 228.872 180.393 229.101 180.501C229.748 180.805 230.43 180.937 231.114 180.945C231.799 180.949 232.495 180.841 233.201 180.505C233.523 180.357 233.868 180.117 234.169 179.8C234.474 179.863 234.782 179.913 235.086 179.912C235.812 179.905 236.497 179.732 237.119 179.454C237.741 179.175 238.306 178.799 238.806 178.276C239 178.056 239.202 177.802 239.379 177.506C239.595 177.515 239.809 177.535 240.035 177.509C240.723 177.448 241.419 177.226 242.028 176.874C242.638 176.522 243.152 176.051 243.559 175.522C243.76 175.252 243.944 174.976 244.098 174.668C244.119 174.626 244.137 174.587 244.156 174.545C244.476 174.471 244.797 174.369 245.119 174.223C245.751 173.972 246.356 173.492 246.806 172.927C247.262 172.355 247.547 171.685 247.687 171.037C247.725 170.838 247.754 170.648 247.774 170.462C248.141 170.426 248.51 170.375 248.886 170.257C249.746 169.996 250.607 169.402 251.122 168.604C251.647 167.812 251.851 166.922 251.875 166.095C251.891 165.536 251.799 165.003 251.668 164.484C252.168 164.263 252.665 164.031 253.146 163.751C253.851 163.27 254.575 162.782 255.087 162.021C255.62 161.294 255.84 160.297 255.608 159.463C255.424 158.609 254.899 157.961 254.445 157.326C254.748 158.062 255.04 158.807 255.051 159.536ZM208.831 176.255C208.11 175.847 207.658 175.196 207.275 174.554C207.775 175.113 208.349 175.633 209.011 175.842C209.666 176.072 210.333 175.904 210.83 175.494C211.822 174.633 212.305 173.182 212.262 171.896L212.203 170.055L213.557 171.471C213.964 171.898 214.406 172.265 214.868 172.46C215.331 172.656 215.788 172.665 216.234 172.527C217.121 172.253 217.994 171.384 218.417 170.45L219.167 168.788L220.325 170.333C220.82 170.994 221.831 171.315 222.82 171.279C223.309 171.261 223.801 171.137 224.147 170.941C224.509 170.739 224.619 170.528 224.632 170.405L224.799 168.644L226.569 169.458C227.303 169.795 228.197 169.754 229.056 169.36C229.477 169.165 229.876 168.881 230.162 168.566C230.466 168.267 230.562 167.883 230.549 167.926L232.312 166.457C232.791 166.541 233.267 166.628 233.695 166.56C234.126 166.506 234.531 166.401 234.904 166.194C235.276 165.99 235.62 165.693 235.905 165.334C236.043 165.152 236.179 164.962 236.277 164.768C236.382 164.596 236.47 164.324 236.463 164.348L237.717 163.144C238.22 163.079 238.712 162.999 239.111 162.815C239.536 162.66 239.838 162.404 240.115 162.118C240.382 161.823 240.583 161.442 240.705 160.995C240.825 160.573 240.869 159.991 240.841 159.624L240.717 158.003L242.227 158.174C243.711 158.341 245.127 158.165 245.855 157.193C246.627 156.241 246.768 154.594 246.414 153.135L246.202 152.267L246.989 152.039L248.351 151.644C248.799 151.499 249.22 151.311 249.663 151.149C250.483 150.757 251.342 150.344 251.927 149.689C252.522 149.059 252.925 148.231 252.848 147.3C252.814 146.373 252.419 145.453 252.023 144.546C252.57 145.354 253.197 146.175 253.407 147.226C253.672 148.256 253.382 149.456 252.723 150.333C252.09 151.253 251.192 151.843 250.315 152.42C249.857 152.655 249.399 152.912 248.929 153.122L248.285 153.386C248.461 154.066 248.585 154.762 248.558 155.492C248.521 156.489 248.27 157.551 247.643 158.485C247.029 159.423 246.015 160.117 244.987 160.422C244.446 160.588 243.909 160.667 243.381 160.7C243.356 160.997 243.316 161.294 243.254 161.609C243.084 162.378 242.746 163.166 242.209 163.835C241.678 164.495 240.974 165.056 240.223 165.352C239.788 165.551 239.353 165.671 238.917 165.764C238.873 165.864 238.825 165.961 238.774 166.063C238.592 166.43 238.371 166.756 238.132 167.076C237.648 167.705 237.041 168.26 236.322 168.674C235.603 169.087 234.784 169.346 233.971 169.421C233.637 169.459 233.314 169.439 232.995 169.415C232.772 169.845 232.485 170.191 232.214 170.495C231.627 171.11 230.953 171.56 230.216 171.894C229.479 172.223 228.666 172.427 227.814 172.436C227.394 172.44 226.968 172.387 226.553 172.285C226.183 172.715 225.738 173.041 225.317 173.236C224.493 173.632 223.664 173.764 222.849 173.762C222.036 173.755 221.221 173.6 220.455 173.244C220.121 173.092 219.798 172.89 219.495 172.655C219.293 172.875 219.091 173.093 218.86 173.286C218.244 173.792 217.502 174.209 216.643 174.364C215.794 174.531 214.848 174.371 214.128 173.952C213.845 173.793 213.599 173.604 213.37 173.403C213.256 173.724 213.133 174.043 212.972 174.339C212.57 175.06 212.035 175.737 211.289 176.176C210.55 176.622 209.548 176.669 208.831 176.255Z" fill="white"/>
</svg>
